<?xml version="1.0" encoding="UTF-8"?>
<!DOCTYPE svg PUBLIC "-//W3C//DTD SVG 1.1//EN" "http://www.w3.org/Graphics/SVG/1.1/DTD/svg11.dtd">
<svg xmlns="http://www.w3.org/2000/svg" version="1.1" width="2000x" height="800px" style="shape-rendering:geometricPrecision; text-rendering:geometricPrecision; image-rendering:optimizeQuality; fill-rule:evenodd; clip-rule:evenodd" xmlns:xlink="http://www.w3.org/1999/xlink">
<g><path style="opacity:1" fill="#f8f8f8" d="M -0.5,-0.5 C 87.1667,-0.5 174.833,-0.5 262.5,-0.5C 261.391,0.28997 260.058,0.78997 258.5,1C 455.833,1.66667 455.833,2.33333 258.5,3C 285.167,3.66667 285.167,4.33333 258.5,5C 413.167,5.66667 413.167,6.33333 258.5,7C 260.384,7.21631 262.051,7.88298 263.5,9C 464.833,9.66667 464.833,10.3333 263.5,11C 283.5,11.6667 283.5,12.3333 263.5,13C 422.167,13.6667 422.167,14.3333 263.5,15C 266.544,15.3589 266.878,16.0255 264.5,17C 314.5,17.3333 364.5,17.6667 414.5,18C 364.833,18.3333 315.167,18.6667 265.5,19C 272.5,19.3333 279.5,19.6667 286.5,20C 277.833,20.3333 269.167,20.6667 260.5,21C 301.167,21.3333 341.833,21.6667 382.5,22C 342.167,22.3333 301.833,22.6667 261.5,23C 261.957,23.414 262.291,23.914 262.5,24.5C 315.83,25.3333 369.164,25.8333 422.5,26C 369.5,26.3333 316.5,26.6667 263.5,27C 271.167,27.3333 278.833,27.6667 286.5,28C 279.167,28.3333 271.833,28.6667 264.5,29C 303.833,29.3333 343.167,29.6667 382.5,30C 343.5,30.3333 304.5,30.6667 265.5,31C 267.167,31.3333 268.833,31.6667 270.5,32C 269.5,32.3333 268.5,32.6667 267.5,33C 316.5,33.3333 365.5,33.6667 414.5,34C 365.833,34.3333 317.167,34.6667 268.5,35C 274.5,35.3333 280.5,35.6667 286.5,36C 279.167,36.3333 271.833,36.6667 264.5,37C 306.5,37.3333 348.5,37.6667 390.5,38C 349.167,38.3333 307.833,38.6667 266.5,39C 267.833,39.3333 269.167,39.6667 270.5,40C 269.833,40.3333 269.167,40.6667 268.5,41C 319.833,41.3333 371.167,41.6667 422.5,42C 371.833,42.3333 321.167,42.6667 270.5,43C 278.5,43.3333 286.5,43.6667 294.5,44C 285.167,44.3333 275.833,44.6667 266.5,45C 307.833,45.3333 349.167,45.6667 390.5,46C 350.167,46.3333 309.833,46.6667 269.5,47C 270.167,47.6667 270.833,48.3333 271.5,49C 321.833,49.3333 372.167,49.6667 422.5,50C 371.167,50.3333 319.833,50.6667 268.5,51C 277.167,51.3333 285.833,51.6667 294.5,52C 286.5,52.3333 278.5,52.6667 270.5,53C 310.5,53.3333 350.5,53.6667 390.5,54C 349.5,54.3333 308.5,54.6667 267.5,55C 268.624,55.2492 269.624,55.7492 270.5,56.5C 323.83,57.3333 377.164,57.8333 430.5,58C 378.5,58.3333 326.5,58.6667 274.5,59C 281.167,59.3333 287.833,59.6667 294.5,60C 286.833,60.3333 279.167,60.6667 271.5,61C 311.167,61.3333 350.833,61.6667 390.5,62C 351.829,62.1667 313.162,62.6667 274.5,63.5C 273.975,64.1924 273.308,64.6924 272.5,65C 322.5,65.3333 372.5,65.6667 422.5,66C 373.833,66.3333 325.167,66.6667 276.5,67C 282.5,67.3333 288.5,67.6667 294.5,68C 287.5,68.3333 280.5,68.6667 273.5,69C 315.167,69.3333 356.833,69.6667 398.5,70C 355.833,70.3333 313.167,70.6667 270.5,71C 273.167,71.3333 275.833,71.6667 278.5,72C 277.5,72.3333 276.5,72.6667 275.5,73C 327.167,73.3333 378.833,73.6667 430.5,74C 377.833,74.3333 325.167,74.6667 272.5,75C 279.833,75.3333 287.167,75.6667 294.5,76C 288.833,76.3333 283.167,76.6667 277.5,77C 317.833,77.3333 358.167,77.6667 398.5,78C 357.833,78.3333 317.167,78.6667 276.5,79C 277.167,79.3333 277.833,79.6667 278.5,80C 277.167,80.3333 275.833,80.6667 274.5,81C 329.167,81.3333 383.833,81.6667 438.5,82C 385.5,82.3333 332.5,82.6667 279.5,83C 287.167,83.3333 294.833,83.6667 302.5,84C 294.167,84.3333 285.833,84.6667 277.5,85C 449.5,85.6667 449.5,86.3333 277.5,87C 279.167,87.3333 280.833,87.6667 282.5,88C 280.167,88.3333 277.833,88.6667 275.5,89C 329.833,89.3333 384.167,89.6667 438.5,90C 386.167,90.3333 333.833,90.6667 281.5,91C 288.5,91.3333 295.5,91.6667 302.5,92C 295.167,92.3333 287.833,92.6667 280.5,93C 319.833,93.3333 359.167,93.6667 398.5,94C 358.833,94.3333 319.167,94.6667 279.5,95C 281.833,95.3333 284.167,95.6667 286.5,96C 283.833,96.3333 281.167,96.6667 278.5,97C 491.833,97.6667 491.833,98.3333 278.5,99C 321.167,99.6667 321.167,100.333 278.5,101C 318.5,101.333 358.5,101.667 398.5,102C 360.833,102.333 323.167,102.667 285.5,103C 285.957,103.414 286.291,103.914 286.5,104.5C 489.163,105.667 489.163,106.5 286.5,107C 318.5,107.667 318.5,108.333 286.5,109C 329.167,109.333 371.833,109.667 414.5,110C 372.167,110.333 329.833,110.667 287.5,111C 291.5,111.667 291.5,112.333 287.5,113C 337.833,113.333 388.167,113.667 438.5,114C 388.5,114.333 338.5,114.667 288.5,115C 295.833,115.333 303.167,115.667 310.5,116C 303.833,116.333 297.167,116.667 290.5,117C 445.167,117.667 445.167,118.333 290.5,119C 291.833,119.333 293.167,119.667 294.5,120C 292.5,120.333 290.5,120.667 288.5,121C 341.167,121.333 393.833,121.667 446.5,122C 392.833,122.333 339.167,122.667 285.5,123C 318.833,123.667 318.833,124.333 285.5,125C 328.5,125.333 371.5,125.667 414.5,126C 372.167,126.333 329.833,126.667 287.5,127C 288.624,127.249 289.624,127.749 290.5,128.5C 342.497,129.333 394.497,129.833 446.5,130C 395.833,130.333 345.167,130.667 294.5,131C 302.5,131.333 310.5,131.667 318.5,132C 309.5,132.333 300.5,132.667 291.5,133C 332.5,133.333 373.5,133.667 414.5,134C 372.5,134.333 330.5,134.667 288.5,135C 290.5,135.333 292.5,135.667 294.5,136C 294.167,136.333 293.833,136.667 293.5,137C 347.167,137.333 400.833,137.667 454.5,138C 401.833,138.333 349.167,138.667 296.5,139C 303.833,139.333 311.167,139.667 318.5,140C 309.833,140.333 301.167,140.667 292.5,141C 335.833,141.333 379.167,141.667 422.5,142C 379.5,142.333 336.5,142.667 293.5,143C 294.421,144.756 295.588,144.923 297,143.5C 349.39,145.319 401.89,146.153 454.5,146C 401.167,146.333 347.833,146.667 294.5,147C 302.5,147.333 310.5,147.667 318.5,148C 311.833,148.333 305.167,148.667 298.5,149C 339.833,149.333 381.167,149.667 422.5,150C 380.833,150.333 339.167,150.667 297.5,151C 299.167,151.333 300.833,151.667 302.5,152C 300.167,152.333 297.833,152.667 295.5,153C 348.5,153.333 401.5,153.667 454.5,154C 403.167,154.333 351.833,154.667 300.5,155C 309.167,155.333 317.833,155.667 326.5,156C 316.167,156.333 305.833,156.667 295.5,157C 337.833,157.333 380.167,157.667 422.5,158C 382.167,158.333 341.833,158.667 301.5,159C 303.167,159.333 304.833,159.667 306.5,160C 303.5,160.333 300.5,160.667 297.5,161C 352.5,161.333 407.5,161.667 462.5,162C 409.167,162.333 355.833,162.667 302.5,163C 310.5,163.333 318.5,163.667 326.5,164C 319.833,164.333 313.167,164.667 306.5,165C 347.833,165.333 389.167,165.667 430.5,166C 387.5,166.333 344.5,166.667 301.5,167C 303.167,167.333 304.833,167.667 306.5,168C 306.167,168.333 305.833,168.667 305.5,169C 357.833,169.333 410.167,169.667 462.5,170C 408.5,170.333 354.5,170.667 300.5,171C 311.833,171.333 323.167,171.667 334.5,172C 324.5,172.333 314.5,172.667 304.5,173C 346.5,173.333 388.5,173.667 430.5,174C 389.5,174.333 348.5,174.667 307.5,175C 308.624,175.249 309.624,175.749 310.5,176.5C 363.83,177.333 417.164,177.833 470.5,178C 415.5,178.333 360.5,178.667 305.5,179C 315.167,179.333 324.833,179.667 334.5,180C 325.833,180.333 317.167,180.667 308.5,181C 351.833,181.333 395.167,181.667 438.5,182C 395.833,182.333 353.167,182.667 310.5,183C 311.833,183.333 313.167,183.667 314.5,184C 313.833,184.333 313.167,184.667 312.5,185C 365.167,185.333 417.833,185.667 470.5,186C 418.5,186.333 366.5,186.667 314.5,187C 321.167,187.333 327.833,187.667 334.5,188C 326.167,188.333 317.833,188.667 309.5,189C 352.5,189.333 395.5,189.667 438.5,190C 396.167,190.333 353.833,190.667 311.5,191C 319.834,191.521 320.167,192.187 312.5,193C 367.833,193.333 423.167,193.667 478.5,194C 423.5,194.333 368.5,194.667 313.5,195C 323.167,195.333 332.833,195.667 342.5,196C 333.5,196.333 324.5,196.667 315.5,197C 356.5,197.333 397.5,197.667 438.5,198C 397.833,198.333 357.167,198.667 316.5,199C 319.167,199.667 319.167,200.333 316.5,201C 370.5,201.333 424.5,201.667 478.5,202C 424.833,202.333 371.167,202.667 317.5,203C 325.833,203.333 334.167,203.667 342.5,204C 334.5,204.333 326.5,204.667 318.5,205C 499.832,205.833 499.832,206.333 318.5,206.5C 318.5,207.5 318.5,208.5 318.5,209.5C 374.501,209.333 430.501,209.5 486.5,210C 430.833,210.333 375.167,210.667 319.5,211C 329.833,211.333 340.167,211.667 350.5,212C 341.833,212.333 333.167,212.667 324.5,213C 497.833,213.667 497.833,214.333 324.5,215C 327.167,215.667 327.167,216.333 324.5,217C 540.5,217.667 540.5,218.333 324.5,219C 330.5,219.333 336.5,219.667 342.5,220C 337.833,220.333 333.167,220.667 328.5,221C 496.5,221.667 496.5,222.333 328.5,223C 336.167,223.813 335.834,224.479 327.5,225C 539.5,225.667 539.5,226.333 327.5,227C 335.167,227.333 342.833,227.667 350.5,228C 343.833,228.333 337.167,228.667 330.5,229C 506.496,229.5 506.496,230.333 330.5,231.5C 330.291,232.086 329.957,232.586 329.5,233C 384.5,233.333 439.5,233.667 494.5,234C 440.5,234.333 386.5,234.667 332.5,235C 341.167,235.333 349.833,235.667 358.5,236C 349.5,236.333 340.5,236.667 331.5,237C 375.167,237.333 418.833,237.667 462.5,238C 419.829,238.167 377.163,238.667 334.5,239.5C 334.291,240.086 333.957,240.586 333.5,241C 387.167,241.333 440.833,241.667 494.5,242C 441.833,242.333 389.167,242.667 336.5,243C 343.833,243.333 351.167,243.667 358.5,244C 350.833,244.333 343.167,244.667 335.5,245C 380.5,245.333 425.5,245.667 470.5,246C 426.5,246.333 382.5,246.667 338.5,247C 339.833,247.333 341.167,247.667 342.5,248C 340.5,248.333 338.5,248.667 336.5,249C 394.5,249.333 452.5,249.667 510.5,250C 453.5,250.333 396.5,250.667 339.5,251C 348.5,251.333 357.5,251.667 366.5,252C 358.167,252.333 349.833,252.667 341.5,253C 384.5,253.333 427.5,253.667 470.5,254C 427.167,254.333 383.833,254.667 340.5,255C 341.308,255.308 341.975,255.808 342.5,256.5C 395.83,257.333 449.164,257.833 502.5,258C 448.5,258.333 394.5,258.667 340.5,259C 349.167,259.333 357.833,259.667 366.5,260C 359.5,260.333 352.5,260.667 345.5,261C 389.833,261.333 434.167,261.667 478.5,262C 433.833,262.333 389.167,262.667 344.5,263C 346.301,263.317 346.634,263.984 345.5,265C 403.167,265.333 460.833,265.667 518.5,266C 461.5,266.333 404.5,266.667 347.5,267C 356.5,267.333 365.5,267.667 374.5,268C 364.833,268.333 355.167,268.667 345.5,269C 389.833,269.333 434.167,269.667 478.5,270C 435.829,270.167 393.163,270.667 350.5,271.5C 349.975,272.192 349.308,272.692 348.5,273C 405.167,273.333 461.833,273.667 518.5,274C 462.167,274.333 405.833,274.667 349.5,275C 357.833,275.333 366.167,275.667 374.5,276C 366.5,276.333 358.5,276.667 350.5,277C 393.167,277.333 435.833,277.667 478.5,278C 436.167,278.333 393.833,278.667 351.5,279C 352.5,279.333 353.5,279.667 354.5,280C 354.167,280.333 353.833,280.667 353.5,281C 584.167,281.667 584.167,282.333 353.5,283C 360.5,283.333 367.5,283.667 374.5,284C 367.833,284.333 361.167,284.667 354.5,285C 398.5,285.333 442.5,285.667 486.5,286C 442.833,286.333 399.167,286.667 355.5,287C 357.044,287.29 358.377,287.956 359.5,289C 415.167,289.333 470.833,289.667 526.5,290C 470.167,290.333 413.833,290.667 357.5,291C 365.833,291.333 374.167,291.667 382.5,292C 375.167,292.333 367.833,292.667 360.5,293C 539.167,293.667 539.167,294.333 360.5,295C 362.301,295.317 362.634,295.984 361.5,297C 419.167,297.333 476.833,297.667 534.5,298C 477.833,298.333 421.167,298.667 364.5,299C 370.5,299.333 376.5,299.667 382.5,300C 375.833,300.333 369.167,300.667 362.5,301C 406.5,301.333 450.5,301.667 494.5,302C 451.5,302.333 408.5,302.667 365.5,303C 366.833,303.667 366.833,304.333 365.5,305C 601.5,305.667 601.5,306.333 365.5,307C 373.833,307.333 382.167,307.667 390.5,308C 383.167,308.333 375.833,308.667 368.5,309C 547.167,309.667 547.167,310.333 368.5,311C 370.5,311.333 372.5,311.667 374.5,312C 373.167,312.333 371.833,312.667 370.5,313C 427.833,313.333 485.167,313.667 542.5,314C 486.167,314.333 429.833,314.667 373.5,315C 381.833,315.333 390.167,315.667 398.5,316C 389.167,316.333 379.833,316.667 370.5,317C 417.167,317.333 463.833,317.667 510.5,318C 465.5,318.333 420.5,318.667 375.5,319C 376.5,319.333 377.5,319.667 378.5,320C 378.167,320.333 377.833,320.667 377.5,321C 608.167,321.667 608.167,322.333 377.5,323C 387.167,323.333 396.833,323.667 406.5,324C 405.512,335.753 405.179,347.586 405.5,359.5C 404.505,348.012 404.172,336.345 404.5,324.5C 401.5,324.5 398.5,324.5 395.5,324.5C 395.333,337.171 395.5,349.838 396,362.5C 400.641,374.906 409.475,379.572 422.5,376.5C 424.969,377.317 427.635,377.817 430.5,378C 423.833,378.333 417.167,378.667 410.5,379C 457.167,379.333 503.833,379.667 550.5,380C 503.5,380.333 456.5,380.667 409.5,381C 411.167,381.333 412.833,381.667 414.5,382C 414.167,382.333 413.833,382.667 413.5,383C 472.5,383.333 531.5,383.667 590.5,384C 532.167,384.333 473.833,384.667 415.5,385C 423.167,385.333 430.833,385.667 438.5,386C 431.5,386.333 424.5,386.667 417.5,387C 467.167,387.333 516.833,387.667 566.5,388C 516.5,388.333 466.5,388.667 416.5,389C 424.5,389.667 424.5,390.333 416.5,391C 477.167,391.333 537.833,391.667 598.5,392C 538.5,392.333 478.5,392.667 418.5,393C 425.167,393.333 431.833,393.667 438.5,394C 432.5,394.333 426.5,394.667 420.5,395C 615.167,395.667 615.167,396.333 420.5,397C 421.646,397.645 422.646,398.478 423.5,399.5C 423.489,398.559 423.989,397.892 425,397.5C 426.722,397.611 426.888,398.111 425.5,399C 460.498,399.5 495.498,399.667 530.5,399.5C 530.5,410.5 530.5,421.5 530.5,432.5C 527.833,432.5 525.167,432.5 522.5,432.5C 518.761,421.959 514.428,411.626 509.5,401.5C 507.326,400.107 505.493,400.44 504,402.5C 499.73,412.483 495.563,422.483 491.5,432.5C 476.163,432.333 460.83,432.5 445.5,433C 453.833,433.333 462.167,433.667 470.5,434C 462.5,434.333 454.5,434.667 446.5,435C 497.167,435.333 547.833,435.667 598.5,436C 548.5,436.333 498.5,436.667 448.5,437C 449.818,437.694 450.651,438.527 451,439.5C 451.667,438.833 452.333,438.167 453,437.5C 454.722,437.611 454.888,438.111 453.5,439C 517.833,439.333 582.167,439.667 646.5,440C 582.5,440.333 518.5,440.667 454.5,441C 462.5,441.333 470.5,441.667 478.5,442C 471.167,442.333 463.833,442.667 456.5,443C 503.833,443.333 551.167,443.667 598.5,444C 551.833,444.333 505.167,444.667 458.5,445C 459.833,445.333 461.167,445.667 462.5,446C 460.167,446.333 457.833,446.667 455.5,447C 519.167,447.333 582.833,447.667 646.5,448C 583.5,448.333 520.5,448.667 457.5,449C 467.167,449.333 476.833,449.667 486.5,450C 477.5,450.333 468.5,450.667 459.5,451C 511.167,451.333 562.833,451.667 614.5,452C 563.5,452.333 512.5,452.667 461.5,453C 462,453.5 462.5,454 463,454.5C 464.049,453.483 465.216,453.316 466.5,454C 465.833,454.333 465.167,454.667 464.5,455C 530.5,455.333 596.5,455.667 662.5,456C 597.167,456.333 531.833,456.667 466.5,457C 475.833,457.333 485.167,457.667 494.5,458C 484.5,458.333 474.5,458.667 464.5,459C 514.5,459.333 564.5,459.667 614.5,460C 565.332,460.167 516.332,460.667 467.5,461.5C 311.5,461.5 155.5,461.5 -0.5,461.5C -0.5,307.5 -0.5,153.5 -0.5,-0.5 Z"/></g>
<g><path style="opacity:1" fill="#f9f9f9" d="M 262.5,-0.5 C 606.167,-0.5 949.833,-0.5 1293.5,-0.5C 1293.5,153.5 1293.5,307.5 1293.5,461.5C 1018.17,461.5 742.833,461.5 467.5,461.5C 516.332,460.667 565.332,460.167 614.5,460C 564.5,459.667 514.5,459.333 464.5,459C 474.5,458.667 484.5,458.333 494.5,458C 485.167,457.667 475.833,457.333 466.5,457C 531.833,456.667 597.167,456.333 662.5,456C 596.5,455.667 530.5,455.333 464.5,455C 465.167,454.667 465.833,454.333 466.5,454C 465.216,453.316 464.049,453.483 463,454.5C 462.5,454 462,453.5 461.5,453C 512.5,452.667 563.5,452.333 614.5,452C 562.833,451.667 511.167,451.333 459.5,451C 468.5,450.667 477.5,450.333 486.5,450C 476.833,449.667 467.167,449.333 457.5,449C 520.5,448.667 583.5,448.333 646.5,448C 582.833,447.667 519.167,447.333 455.5,447C 457.833,446.667 460.167,446.333 462.5,446C 461.167,445.667 459.833,445.333 458.5,445C 505.167,444.667 551.833,444.333 598.5,444C 551.167,443.667 503.833,443.333 456.5,443C 463.833,442.667 471.167,442.333 478.5,442C 470.5,441.667 462.5,441.333 454.5,441C 518.5,440.667 582.5,440.333 646.5,440C 582.167,439.667 517.833,439.333 453.5,439C 454.888,438.111 454.722,437.611 453,437.5C 452.333,438.167 451.667,438.833 451,439.5C 450.651,438.527 449.818,437.694 448.5,437C 498.5,436.667 548.5,436.333 598.5,436C 547.833,435.667 497.167,435.333 446.5,435C 454.5,434.667 462.5,434.333 470.5,434C 462.167,433.667 453.833,433.333 445.5,433C 460.83,432.5 476.163,432.333 491.5,432.5C 495.377,431.473 497.377,428.806 497.5,424.5C 503.868,424.17 510.202,424.504 516.5,425.5C 517.5,427.5 518.5,429.5 519.5,431.5C 520.325,432.386 521.325,432.719 522.5,432.5C 525.167,432.5 527.833,432.5 530.5,432.5C 531.833,432.5 533.167,432.5 534.5,432.5C 534.5,428.167 534.5,423.833 534.5,419.5C 536.857,419.337 539.19,419.503 541.5,420C 544.115,424.283 547.115,428.283 550.5,432C 551.833,432.667 553.167,432.667 554.5,432C 550.784,427.952 547.45,423.618 544.5,419C 554.228,415.598 555.894,409.932 549.5,402C 547.655,400.872 545.655,400.372 543.5,400.5C 539.366,399.515 535.032,399.182 530.5,399.5C 495.498,399.667 460.498,399.5 425.5,399C 426.888,398.111 426.722,397.611 425,397.5C 423.989,397.892 423.489,398.559 423.5,399.5C 422.646,398.478 421.646,397.645 420.5,397C 615.167,396.333 615.167,395.667 420.5,395C 426.5,394.667 432.5,394.333 438.5,394C 431.833,393.667 425.167,393.333 418.5,393C 478.5,392.667 538.5,392.333 598.5,392C 537.833,391.667 477.167,391.333 416.5,391C 424.5,390.333 424.5,389.667 416.5,389C 466.5,388.667 516.5,388.333 566.5,388C 516.833,387.667 467.167,387.333 417.5,387C 424.5,386.667 431.5,386.333 438.5,386C 430.833,385.667 423.167,385.333 415.5,385C 473.833,384.667 532.167,384.333 590.5,384C 531.5,383.667 472.5,383.333 413.5,383C 413.833,382.667 414.167,382.333 414.5,382C 412.833,381.667 411.167,381.333 409.5,381C 456.5,380.667 503.5,380.333 550.5,380C 503.833,379.667 457.167,379.333 410.5,379C 417.167,378.667 423.833,378.333 430.5,378C 427.635,377.817 424.969,377.317 422.5,376.5C 428.907,373.922 433.074,369.255 435,362.5C 435.5,349.838 435.667,337.171 435.5,324.5C 432.5,324.5 429.5,324.5 426.5,324.5C 426.941,337.241 426.441,349.908 425,362.5C 418.667,369.167 412.333,369.167 406,362.5C 405.517,361.552 405.351,360.552 405.5,359.5C 405.179,347.586 405.512,335.753 406.5,324C 396.833,323.667 387.167,323.333 377.5,323C 608.167,322.333 608.167,321.667 377.5,321C 377.833,320.667 378.167,320.333 378.5,320C 377.5,319.667 376.5,319.333 375.5,319C 420.5,318.667 465.5,318.333 510.5,318C 463.833,317.667 417.167,317.333 370.5,317C 379.833,316.667 389.167,316.333 398.5,316C 390.167,315.667 381.833,315.333 373.5,315C 429.833,314.667 486.167,314.333 542.5,314C 485.167,313.667 427.833,313.333 370.5,313C 371.833,312.667 373.167,312.333 374.5,312C 372.5,311.667 370.5,311.333 368.5,311C 547.167,310.333 547.167,309.667 368.5,309C 375.833,308.667 383.167,308.333 390.5,308C 382.167,307.667 373.833,307.333 365.5,307C 601.5,306.333 601.5,305.667 365.5,305C 366.833,304.333 366.833,303.667 365.5,303C 408.5,302.667 451.5,302.333 494.5,302C 450.5,301.667 406.5,301.333 362.5,301C 369.167,300.667 375.833,300.333 382.5,300C 376.5,299.667 370.5,299.333 364.5,299C 421.167,298.667 477.833,298.333 534.5,298C 476.833,297.667 419.167,297.333 361.5,297C 362.634,295.984 362.301,295.317 360.5,295C 539.167,294.333 539.167,293.667 360.5,293C 367.833,292.667 375.167,292.333 382.5,292C 374.167,291.667 365.833,291.333 357.5,291C 413.833,290.667 470.167,290.333 526.5,290C 470.833,289.667 415.167,289.333 359.5,289C 358.377,287.956 357.044,287.29 355.5,287C 399.167,286.667 442.833,286.333 486.5,286C 442.5,285.667 398.5,285.333 354.5,285C 361.167,284.667 367.833,284.333 374.5,284C 367.5,283.667 360.5,283.333 353.5,283C 584.167,282.333 584.167,281.667 353.5,281C 353.833,280.667 354.167,280.333 354.5,280C 353.5,279.667 352.5,279.333 351.5,279C 393.833,278.667 436.167,278.333 478.5,278C 435.833,277.667 393.167,277.333 350.5,277C 358.5,276.667 366.5,276.333 374.5,276C 366.167,275.667 357.833,275.333 349.5,275C 405.833,274.667 462.167,274.333 518.5,274C 461.833,273.667 405.167,273.333 348.5,273C 349.308,272.692 349.975,272.192 350.5,271.5C 393.163,270.667 435.829,270.167 478.5,270C 434.167,269.667 389.833,269.333 345.5,269C 355.167,268.667 364.833,268.333 374.5,268C 365.5,267.667 356.5,267.333 347.5,267C 404.5,266.667 461.5,266.333 518.5,266C 460.833,265.667 403.167,265.333 345.5,265C 346.634,263.984 346.301,263.317 344.5,263C 389.167,262.667 433.833,262.333 478.5,262C 434.167,261.667 389.833,261.333 345.5,261C 352.5,260.667 359.5,260.333 366.5,260C 357.833,259.667 349.167,259.333 340.5,259C 394.5,258.667 448.5,258.333 502.5,258C 449.164,257.833 395.83,257.333 342.5,256.5C 341.975,255.808 341.308,255.308 340.5,255C 383.833,254.667 427.167,254.333 470.5,254C 427.5,253.667 384.5,253.333 341.5,253C 349.833,252.667 358.167,252.333 366.5,252C 357.5,251.667 348.5,251.333 339.5,251C 396.5,250.667 453.5,250.333 510.5,250C 452.5,249.667 394.5,249.333 336.5,249C 338.5,248.667 340.5,248.333 342.5,248C 341.167,247.667 339.833,247.333 338.5,247C 382.5,246.667 426.5,246.333 470.5,246C 425.5,245.667 380.5,245.333 335.5,245C 343.167,244.667 350.833,244.333 358.5,244C 351.167,243.667 343.833,243.333 336.5,243C 389.167,242.667 441.833,242.333 494.5,242C 440.833,241.667 387.167,241.333 333.5,241C 333.957,240.586 334.291,240.086 334.5,239.5C 377.163,238.667 419.829,238.167 462.5,238C 418.833,237.667 375.167,237.333 331.5,237C 340.5,236.667 349.5,236.333 358.5,236C 349.833,235.667 341.167,235.333 332.5,235C 386.5,234.667 440.5,234.333 494.5,234C 439.5,233.667 384.5,233.333 329.5,233C 329.957,232.586 330.291,232.086 330.5,231.5C 506.496,230.333 506.496,229.5 330.5,229C 337.167,228.667 343.833,228.333 350.5,228C 342.833,227.667 335.167,227.333 327.5,227C 539.5,226.333 539.5,225.667 327.5,225C 335.834,224.479 336.167,223.813 328.5,223C 496.5,222.333 496.5,221.667 328.5,221C 333.167,220.667 337.833,220.333 342.5,220C 336.5,219.667 330.5,219.333 324.5,219C 540.5,218.333 540.5,217.667 324.5,217C 327.167,216.333 327.167,215.667 324.5,215C 497.833,214.333 497.833,213.667 324.5,213C 333.167,212.667 341.833,212.333 350.5,212C 340.167,211.667 329.833,211.333 319.5,211C 375.167,210.667 430.833,210.333 486.5,210C 430.501,209.5 374.501,209.333 318.5,209.5C 318.5,208.5 318.5,207.5 318.5,206.5C 499.832,206.333 499.832,205.833 318.5,205C 326.5,204.667 334.5,204.333 342.5,204C 334.167,203.667 325.833,203.333 317.5,203C 371.167,202.667 424.833,202.333 478.5,202C 424.5,201.667 370.5,201.333 316.5,201C 319.167,200.333 319.167,199.667 316.5,199C 357.167,198.667 397.833,198.333 438.5,198C 397.5,197.667 356.5,197.333 315.5,197C 324.5,196.667 333.5,196.333 342.5,196C 332.833,195.667 323.167,195.333 313.5,195C 368.5,194.667 423.5,194.333 478.5,194C 423.167,193.667 367.833,193.333 312.5,193C 320.167,192.187 319.834,191.521 311.5,191C 353.833,190.667 396.167,190.333 438.5,190C 395.5,189.667 352.5,189.333 309.5,189C 317.833,188.667 326.167,188.333 334.5,188C 327.833,187.667 321.167,187.333 314.5,187C 366.5,186.667 418.5,186.333 470.5,186C 417.833,185.667 365.167,185.333 312.5,185C 313.167,184.667 313.833,184.333 314.5,184C 313.167,183.667 311.833,183.333 310.5,183C 353.167,182.667 395.833,182.333 438.5,182C 395.167,181.667 351.833,181.333 308.5,181C 317.167,180.667 325.833,180.333 334.5,180C 324.833,179.667 315.167,179.333 305.5,179C 360.5,178.667 415.5,178.333 470.5,178C 417.164,177.833 363.83,177.333 310.5,176.5C 309.624,175.749 308.624,175.249 307.5,175C 348.5,174.667 389.5,174.333 430.5,174C 388.5,173.667 346.5,173.333 304.5,173C 314.5,172.667 324.5,172.333 334.5,172C 323.167,171.667 311.833,171.333 300.5,171C 354.5,170.667 408.5,170.333 462.5,170C 410.167,169.667 357.833,169.333 305.5,169C 305.833,168.667 306.167,168.333 306.5,168C 304.833,167.667 303.167,167.333 301.5,167C 344.5,166.667 387.5,166.333 430.5,166C 389.167,165.667 347.833,165.333 306.5,165C 313.167,164.667 319.833,164.333 326.5,164C 318.5,163.667 310.5,163.333 302.5,163C 355.833,162.667 409.167,162.333 462.5,162C 407.5,161.667 352.5,161.333 297.5,161C 300.5,160.667 303.5,160.333 306.5,160C 304.833,159.667 303.167,159.333 301.5,159C 341.833,158.667 382.167,158.333 422.5,158C 380.167,157.667 337.833,157.333 295.5,157C 305.833,156.667 316.167,156.333 326.5,156C 317.833,155.667 309.167,155.333 300.5,155C 351.833,154.667 403.167,154.333 454.5,154C 401.5,153.667 348.5,153.333 295.5,153C 297.833,152.667 300.167,152.333 302.5,152C 300.833,151.667 299.167,151.333 297.5,151C 339.167,150.667 380.833,150.333 422.5,150C 381.167,149.667 339.833,149.333 298.5,149C 305.167,148.667 311.833,148.333 318.5,148C 310.5,147.667 302.5,147.333 294.5,147C 347.833,146.667 401.167,146.333 454.5,146C 401.89,146.153 349.39,145.319 297,143.5C 295.588,144.923 294.421,144.756 293.5,143C 336.5,142.667 379.5,142.333 422.5,142C 379.167,141.667 335.833,141.333 292.5,141C 301.167,140.667 309.833,140.333 318.5,140C 311.167,139.667 303.833,139.333 296.5,139C 349.167,138.667 401.833,138.333 454.5,138C 400.833,137.667 347.167,137.333 293.5,137C 293.833,136.667 294.167,136.333 294.5,136C 292.5,135.667 290.5,135.333 288.5,135C 330.5,134.667 372.5,134.333 414.5,134C 373.5,133.667 332.5,133.333 291.5,133C 300.5,132.667 309.5,132.333 318.5,132C 310.5,131.667 302.5,131.333 294.5,131C 345.167,130.667 395.833,130.333 446.5,130C 394.497,129.833 342.497,129.333 290.5,128.5C 289.624,127.749 288.624,127.249 287.5,127C 329.833,126.667 372.167,126.333 414.5,126C 371.5,125.667 328.5,125.333 285.5,125C 318.833,124.333 318.833,123.667 285.5,123C 339.167,122.667 392.833,122.333 446.5,122C 393.833,121.667 341.167,121.333 288.5,121C 290.5,120.667 292.5,120.333 294.5,120C 293.167,119.667 291.833,119.333 290.5,119C 445.167,118.333 445.167,117.667 290.5,117C 297.167,116.667 303.833,116.333 310.5,116C 303.167,115.667 295.833,115.333 288.5,115C 338.5,114.667 388.5,114.333 438.5,114C 388.167,113.667 337.833,113.333 287.5,113C 291.5,112.333 291.5,111.667 287.5,111C 329.833,110.667 372.167,110.333 414.5,110C 371.833,109.667 329.167,109.333 286.5,109C 318.5,108.333 318.5,107.667 286.5,107C 489.163,106.5 489.163,105.667 286.5,104.5C 286.291,103.914 285.957,103.414 285.5,103C 323.167,102.667 360.833,102.333 398.5,102C 358.5,101.667 318.5,101.333 278.5,101C 321.167,100.333 321.167,99.6667 278.5,99C 491.833,98.3333 491.833,97.6667 278.5,97C 281.167,96.6667 283.833,96.3333 286.5,96C 284.167,95.6667 281.833,95.3333 279.5,95C 319.167,94.6667 358.833,94.3333 398.5,94C 359.167,93.6667 319.833,93.3333 280.5,93C 287.833,92.6667 295.167,92.3333 302.5,92C 295.5,91.6667 288.5,91.3333 281.5,91C 333.833,90.6667 386.167,90.3333 438.5,90C 384.167,89.6667 329.833,89.3333 275.5,89C 277.833,88.6667 280.167,88.3333 282.5,88C 280.833,87.6667 279.167,87.3333 277.5,87C 449.5,86.3333 449.5,85.6667 277.5,85C 285.833,84.6667 294.167,84.3333 302.5,84C 294.833,83.6667 287.167,83.3333 279.5,83C 332.5,82.6667 385.5,82.3333 438.5,82C 383.833,81.6667 329.167,81.3333 274.5,81C 275.833,80.6667 277.167,80.3333 278.5,80C 277.833,79.6667 277.167,79.3333 276.5,79C 317.167,78.6667 357.833,78.3333 398.5,78C 358.167,77.6667 317.833,77.3333 277.5,77C 283.167,76.6667 288.833,76.3333 294.5,76C 287.167,75.6667 279.833,75.3333 272.5,75C 325.167,74.6667 377.833,74.3333 430.5,74C 378.833,73.6667 327.167,73.3333 275.5,73C 276.5,72.6667 277.5,72.3333 278.5,72C 275.833,71.6667 273.167,71.3333 270.5,71C 313.167,70.6667 355.833,70.3333 398.5,70C 356.833,69.6667 315.167,69.3333 273.5,69C 280.5,68.6667 287.5,68.3333 294.5,68C 288.5,67.6667 282.5,67.3333 276.5,67C 325.167,66.6667 373.833,66.3333 422.5,66C 372.5,65.6667 322.5,65.3333 272.5,65C 273.308,64.6924 273.975,64.1924 274.5,63.5C 313.162,62.6667 351.829,62.1667 390.5,62C 350.833,61.6667 311.167,61.3333 271.5,61C 279.167,60.6667 286.833,60.3333 294.5,60C 287.833,59.6667 281.167,59.3333 274.5,59C 326.5,58.6667 378.5,58.3333 430.5,58C 377.164,57.8333 323.83,57.3333 270.5,56.5C 269.624,55.7492 268.624,55.2492 267.5,55C 308.5,54.6667 349.5,54.3333 390.5,54C 350.5,53.6667 310.5,53.3333 270.5,53C 278.5,52.6667 286.5,52.3333 294.5,52C 285.833,51.6667 277.167,51.3333 268.5,51C 319.833,50.6667 371.167,50.3333 422.5,50C 372.167,49.6667 321.833,49.3333 271.5,49C 270.833,48.3333 270.167,47.6667 269.5,47C 309.833,46.6667 350.167,46.3333 390.5,46C 349.167,45.6667 307.833,45.3333 266.5,45C 275.833,44.6667 285.167,44.3333 294.5,44C 286.5,43.6667 278.5,43.3333 270.5,43C 321.167,42.6667 371.833,42.3333 422.5,42C 371.167,41.6667 319.833,41.3333 268.5,41C 269.167,40.6667 269.833,40.3333 270.5,40C 269.167,39.6667 267.833,39.3333 266.5,39C 307.833,38.6667 349.167,38.3333 390.5,38C 348.5,37.6667 306.5,37.3333 264.5,37C 271.833,36.6667 279.167,36.3333 286.5,36C 280.5,35.6667 274.5,35.3333 268.5,35C 317.167,34.6667 365.833,34.3333 414.5,34C 365.5,33.6667 316.5,33.3333 267.5,33C 268.5,32.6667 269.5,32.3333 270.5,32C 268.833,31.6667 267.167,31.3333 265.5,31C 304.5,30.6667 343.5,30.3333 382.5,30C 343.167,29.6667 303.833,29.3333 264.5,29C 271.833,28.6667 279.167,28.3333 286.5,28C 278.833,27.6667 271.167,27.3333 263.5,27C 316.5,26.6667 369.5,26.3333 422.5,26C 369.164,25.8333 315.83,25.3333 262.5,24.5C 262.291,23.914 261.957,23.414 261.5,23C 301.833,22.6667 342.167,22.3333 382.5,22C 341.833,21.6667 301.167,21.3333 260.5,21C 269.167,20.6667 277.833,20.3333 286.5,20C 279.5,19.6667 272.5,19.3333 265.5,19C 315.167,18.6667 364.833,18.3333 414.5,18C 364.5,17.6667 314.5,17.3333 264.5,17C 266.878,16.0255 266.544,15.3589 263.5,15C 422.167,14.3333 422.167,13.6667 263.5,13C 283.5,12.3333 283.5,11.6667 263.5,11C 464.833,10.3333 464.833,9.66667 263.5,9C 262.051,7.88298 260.384,7.21631 258.5,7C 413.167,6.33333 413.167,5.66667 258.5,5C 285.167,4.33333 285.167,3.66667 258.5,3C 455.833,2.33333 455.833,1.66667 258.5,1C 260.058,0.78997 261.391,0.28997 262.5,-0.5 Z"/></g>
<g><path style="opacity:1" fill="#0c0c0c" d="M 626.5,44.5 C 635.173,44.3336 643.84,44.5002 652.5,45C 666.911,55.8368 669.411,69.0035 660,84.5C 652.137,92.5112 642.637,95.3445 631.5,93C 613.829,83.9872 609.329,70.4872 618,52.5C 620.729,49.6007 623.562,46.934 626.5,44.5 Z"/></g>
<g><path style="opacity:1" fill="#0e0e0e" d="M 581.5,48.5 C 600.685,49.5535 607.518,59.2202 602,77.5C 595.068,86.8575 586.235,89.0242 575.5,84C 562.034,69.4149 564.034,57.5816 581.5,48.5 Z"/></g>
<g><path style="opacity:1" fill="#0e0e0e" d="M 689.5,48.5 C 706.858,49.0079 714.025,57.6746 711,74.5C 706.307,84.5959 698.474,88.4293 687.5,86C 674.745,79.3103 671.578,69.477 678,56.5C 681.482,53.1608 685.315,50.4942 689.5,48.5 Z"/></g>
<g><path style="opacity:1" fill="#101010" d="M 541.5,56.5 C 553.372,55.5363 558.538,60.8696 557,72.5C 553.23,79.4136 547.73,81.2469 540.5,78C 532.309,70.3488 532.642,63.1822 541.5,56.5 Z"/></g>
<g><path style="opacity:1" fill="#0f0f0f" d="M 728.5,56.5 C 741.186,55.6765 746.019,61.3432 743,73.5C 736.601,80.9433 729.934,81.2767 723,74.5C 719.697,66.7891 721.53,60.7891 728.5,56.5 Z"/></g>
<g><path style="opacity:1" fill="#0e0e0e" d="M 540.5,88.5 C 550.955,86.6452 558.789,90.3118 564,99.5C 567.183,118.654 559.016,127.154 539.5,125C 526.73,117.357 524.23,107.19 532,94.5C 534.736,92.2481 537.569,90.2481 540.5,88.5 Z"/></g>
<g><path style="opacity:1" fill="#0e0e0e" d="M 726.5,88.5 C 748.209,88.2783 755.375,98.2783 748,118.5C 742.245,125.037 735.078,127.203 726.5,125C 714.028,118.565 710.862,109.065 717,96.5C 719.772,93.2166 722.939,90.5499 726.5,88.5 Z"/></g>
<g><path style="opacity:1" fill="#0f0f0f" d="M 589.5,102.5 C 601.535,102.914 606.035,108.914 603,120.5C 596.333,127.167 589.667,127.167 583,120.5C 579.844,112.494 582.01,106.494 589.5,102.5 Z"/></g>
<g><path style="opacity:1" fill="#0e0e0e" d="M 635.5,102.5 C 651.503,102.667 659.003,110.667 658,126.5C 652.887,138.538 644.054,142.705 631.5,139C 620.626,131.671 618.126,122.171 624,110.5C 627.482,107.161 631.315,104.494 635.5,102.5 Z"/></g>
<g><path style="opacity:1" fill="#0f0f0f" d="M 682.5,102.5 C 693.886,102.048 698.72,107.381 697,118.5C 693.677,124.908 688.511,127.075 681.5,125C 671.852,117.057 672.185,109.557 682.5,102.5 Z"/></g>
<g><path style="opacity:1" fill="#0d0d0d" d="M 541.5,134.5 C 562.844,134.675 573.011,145.341 572,166.5C 568.084,179.558 559.251,186.558 545.5,187.5C 526.83,183.85 518.663,172.517 521,153.5C 524.874,143.786 531.708,137.453 541.5,134.5 Z"/></g>
<g><path style="opacity:1" fill="#0d0d0d" d="M 727.5,134.5 C 749.841,135.004 760.008,146.338 758,168.5C 752.348,182.159 742.181,188.326 727.5,187C 709.712,180.257 703.545,167.757 709,149.5C 713.375,142.237 719.541,137.237 727.5,134.5 Z"/></g>
<g><path style="opacity:1" fill="#0d0d0d" d="M 593.5,142.5 C 604.817,140.316 612.984,144.316 618,154.5C 620.486,164.726 617.319,172.559 608.5,178C 589.893,182.062 581.06,174.562 582,155.5C 584.3,149.706 588.133,145.373 593.5,142.5 Z"/></g>
<g><path style="opacity:1" fill="#0c0c0c" d="M 672.5,142.5 C 691.485,141.311 699.318,149.978 696,168.5C 690.88,177.772 683.047,181.272 672.5,179C 660.556,172.503 657.39,163.003 663,150.5C 665.772,147.217 668.939,144.55 672.5,142.5 Z"/></g>
<g><path style="opacity:1" fill="#0e0e0e" d="M 635.5,149.5 C 645.962,148.609 651.129,153.276 651,163.5C 648.315,170.841 643.148,173.674 635.5,172C 628.93,168.345 626.763,162.845 629,155.5C 631.063,153.266 633.229,151.266 635.5,149.5 Z"/></g>
<g><path style="opacity:1" fill="#0e0e0e" d="M 634.5,181.5 C 646.134,179.897 653.967,184.563 658,195.5C 658.813,212.02 650.98,219.853 634.5,219C 621.053,212.656 617.553,202.823 624,189.5C 626.855,185.789 630.355,183.123 634.5,181.5 Z"/></g>
<g><path style="opacity:1" fill="#0e0e0e" d="M 539.5,196.5 C 557.147,194.322 565.647,201.989 565,219.5C 557.893,233.902 547.393,237.069 533.5,229C 523.949,215.976 525.949,205.142 539.5,196.5 Z"/></g>
<g><path style="opacity:1" fill="#0e0e0e" d="M 587.5,196.5 C 600.684,195.176 605.851,200.842 603,213.5C 596.254,221.41 589.587,221.41 583,213.5C 580.052,206.612 581.552,200.946 587.5,196.5 Z"/></g>
<g><path style="opacity:1" fill="#101010" d="M 681.5,196.5 C 695.626,196.115 700.126,202.449 695,215.5C 686.814,221.802 680.148,220.469 675,211.5C 673.366,204.775 675.532,199.775 681.5,196.5 Z"/></g>
<g><path style="opacity:1" fill="#0d0d0d" d="M 725.5,196.5 C 740.274,193.697 748.941,199.53 751.5,214C 749.718,228.742 741.385,235.075 726.5,233C 715.901,227.534 712.068,219.034 715,207.5C 716.333,205.5 717.667,203.5 719,201.5C 721.352,199.97 723.519,198.303 725.5,196.5 Z"/></g>
<g><path style="opacity:1" fill="#0c0c0c" d="M 631.5,228.5 C 654.474,226.313 665.641,236.646 665,259.5C 662.175,270.325 655.342,277.158 644.5,280C 625.517,281.021 615.184,272.021 613.5,253C 614.516,241.123 620.516,232.956 631.5,228.5 Z"/></g>
<g><path style="opacity:1" fill="#0e0e0e" d="M 579.5,235.5 C 597.176,234.011 605.343,242.011 604,259.5C 599.492,270.647 591.326,274.813 579.5,272C 567.028,265.565 563.862,256.065 570,243.5C 572.772,240.217 575.939,237.55 579.5,235.5 Z"/></g>
<g><path style="opacity:1" fill="#0e0e0e" d="M 687.5,235.5 C 704.23,234.253 712.396,241.92 712,258.5C 706.823,271.169 697.657,275.335 684.5,271C 674.693,264.244 672.193,255.41 677,244.5C 679.84,240.673 683.34,237.673 687.5,235.5 Z"/></g>
<g><path style="opacity:1" fill="#0f0f0f" d="M 542.5,242.5 C 553.843,242.008 558.677,247.341 557,258.5C 553.677,264.908 548.511,267.075 541.5,265C 531.852,257.057 532.185,249.557 542.5,242.5 Z"/></g>
<g><path style="opacity:1" fill="#0f0f0f" d="M 728.5,242.5 C 738.933,241.6 744.1,246.266 744,256.5C 741.442,263.866 736.275,266.699 728.5,265C 722.092,261.677 719.925,256.511 722,249.5C 723.694,246.642 725.861,244.309 728.5,242.5 Z"/></g>
<g><path style="opacity:1" fill="#111111" d="M 356.5,322.5 C 368.354,321.725 378.02,325.891 385.5,335C 383.53,337.316 381.196,339.149 378.5,340.5C 370.101,331.361 360.768,330.195 350.5,337C 344.801,344.198 343.967,352.031 348,360.5C 353.357,367.085 360.191,369.251 368.5,367C 372.241,365.262 375.408,362.762 378,359.5C 380.644,361.31 383.144,363.31 385.5,365.5C 376.142,376.81 364.475,379.977 350.5,375C 335.196,364.618 331.696,351.118 340,334.5C 344.629,329.121 350.129,325.121 356.5,322.5 Z"/></g>
<g><path style="opacity:1" fill="#101010" d="M 717.5,322.5 C 742.84,322.841 753.34,335.508 749,360.5C 741.42,375.039 729.586,380.206 713.5,376C 696.574,366.15 692.408,352.316 701,334.5C 705.629,329.121 711.129,325.121 717.5,322.5 Z"/></g>
<g><path style="opacity:1" fill="#111111" d="M 1003.5,323.5 C 1014.75,321.287 1024.42,324.121 1032.5,332C 1030.32,334.35 1027.98,336.517 1025.5,338.5C 1018.68,332.056 1011.02,330.889 1002.5,335C 993.629,342.498 992.129,351.331 998,361.5C 1006.07,368.728 1014.74,369.394 1024,363.5C 1024.5,359.514 1024.67,355.514 1024.5,351.5C 1019.83,351.5 1015.17,351.5 1010.5,351.5C 1010.5,348.167 1010.5,344.833 1010.5,341.5C 1018.5,341.5 1026.5,341.5 1034.5,341.5C 1041.1,363.344 1033.26,375.344 1011,377.5C 993.967,375.488 985.134,365.822 984.5,348.5C 985.952,336.39 992.285,328.057 1003.5,323.5 Z"/></g>
<g><path style="opacity:1" fill="#111111" d="M 258.5,323.5 C 264.067,323.52 269.4,324.687 274.5,327C 277.236,328.362 279.569,330.196 281.5,332.5C 279.798,335.037 277.631,337.037 275,338.5C 271.603,335.476 267.603,333.81 263,333.5C 258.913,333.457 256.08,335.29 254.5,339C 255.487,341.321 257.154,342.987 259.5,344C 265.212,345.511 270.879,347.178 276.5,349C 283.098,355.174 284.264,362.341 280,370.5C 269.688,379.306 258.854,379.806 247.5,372C 245.792,370.49 244.126,368.99 242.5,367.5C 244.483,365.016 246.65,362.683 249,360.5C 254.432,365.97 260.932,368.137 268.5,367C 274.126,364.513 274.792,361.18 270.5,357C 263.851,356.006 257.517,354.006 251.5,351C 244.93,345.175 243.763,338.342 248,330.5C 250.998,327.262 254.498,324.929 258.5,323.5 Z"/></g>
<g><path style="opacity:1" fill="#0d0d0d" d="M 328.5,333.5 C 320.167,333.5 311.833,333.5 303.5,333.5C 303.194,336.385 303.527,339.052 304.5,341.5C 311.5,341.5 318.5,341.5 325.5,341.5C 325.5,344.833 325.5,348.167 325.5,351.5C 318.5,351.5 311.5,351.5 304.5,351.5C 304.5,356.833 304.5,362.167 304.5,367.5C 312.5,367.5 320.5,367.5 328.5,367.5C 328.5,370.5 328.5,373.5 328.5,376.5C 317.167,376.5 305.833,376.5 294.5,376.5C 294.5,359.167 294.5,341.833 294.5,324.5C 305.833,324.5 317.167,324.5 328.5,324.5C 328.5,327.5 328.5,330.5 328.5,333.5 Z"/></g>
<g><path style="opacity:1" fill="#0c0c0c" d="M 405.5,359.5 C 405.351,360.552 405.517,361.552 406,362.5C 412.333,369.167 418.667,369.167 425,362.5C 426.441,349.908 426.941,337.241 426.5,324.5C 429.5,324.5 432.5,324.5 435.5,324.5C 435.667,337.171 435.5,349.838 435,362.5C 433.074,369.255 428.907,373.922 422.5,376.5C 409.475,379.572 400.641,374.906 396,362.5C 395.5,349.838 395.333,337.171 395.5,324.5C 398.5,324.5 401.5,324.5 404.5,324.5C 404.172,336.345 404.505,348.012 405.5,359.5 Z"/></g>
<g><path style="opacity:1" fill="#0d0d0d" d="M 447.5,324.5 C 454.841,324.334 462.174,324.5 469.5,325C 481.76,331.999 482.76,340.499 472.5,350.5C 478.5,358.833 484.5,367.167 490.5,375.5C 486.878,376.659 483.211,376.825 479.5,376C 473.878,368.589 468.378,361.089 463,353.5C 461.211,351.771 459.044,351.104 456.5,351.5C 456.5,359.833 456.5,368.167 456.5,376.5C 453.5,376.5 450.5,376.5 447.5,376.5C 447.5,359.167 447.5,341.833 447.5,324.5 Z"/></g>
<g><path style="opacity:1" fill="#141414" d="M 500.5,324.5 C 503.833,324.5 507.167,324.5 510.5,324.5C 510.5,341.833 510.5,359.167 510.5,376.5C 507.167,376.5 503.833,376.5 500.5,376.5C 500.5,359.167 500.5,341.833 500.5,324.5 Z"/></g>
<g><path style="opacity:1" fill="#0d0d0d" d="M 523.5,324.5 C 535.167,324.5 546.833,324.5 558.5,324.5C 558.5,327.833 558.5,331.167 558.5,334.5C 554.167,334.5 549.833,334.5 545.5,334.5C 545.5,348.5 545.5,362.5 545.5,376.5C 542.5,376.5 539.5,376.5 536.5,376.5C 536.5,362.5 536.5,348.5 536.5,334.5C 532.167,334.5 527.833,334.5 523.5,334.5C 523.5,331.167 523.5,327.833 523.5,324.5 Z"/></g>
<g><path style="opacity:1" fill="#101010" d="M 565.5,325.5 C 569.351,324.191 573.351,324.191 577.5,325.5C 581.333,330.5 585.167,335.5 589,340.5C 592.833,335.333 596.667,330.167 600.5,325C 604.5,324.333 608.5,324.333 612.5,325C 605.966,333.235 599.8,341.735 594,350.5C 593.5,359.16 593.334,367.827 593.5,376.5C 590.167,376.5 586.833,376.5 583.5,376.5C 583.666,367.494 583.5,358.494 583,349.5C 576.917,341.598 571.083,333.598 565.5,325.5 Z"/></g>
<g><path style="opacity:1" fill="#0f0f0f" d="M 639.5,324.5 C 642.898,324.18 646.232,324.513 649.5,325.5C 653.808,331.641 658.308,337.641 663,343.5C 667.692,337.641 672.192,331.641 676.5,325.5C 679.768,324.513 683.102,324.18 686.5,324.5C 686.5,341.833 686.5,359.167 686.5,376.5C 683.167,376.5 679.833,376.5 676.5,376.5C 676.667,365.162 676.5,353.828 676,342.5C 671.667,348.5 667.333,354.5 663,360.5C 658.667,354.5 654.333,348.5 650,342.5C 649.5,353.828 649.333,365.162 649.5,376.5C 646.167,376.5 642.833,376.5 639.5,376.5C 639.5,359.167 639.5,341.833 639.5,324.5 Z"/></g>
<g><path style="opacity:1" fill="#121212" d="M 759.5,324.5 C 767.507,324.334 775.507,324.5 783.5,325C 801.983,332.13 807.816,344.964 801,363.5C 796.835,369.999 791.002,374.166 783.5,376C 775.507,376.5 767.507,376.666 759.5,376.5C 759.5,359.167 759.5,341.833 759.5,324.5 Z"/></g>
<g><path style="opacity:1" fill="#0d0d0d" d="M 847.5,324.5 C 847.5,327.5 847.5,330.5 847.5,333.5C 839.316,333.174 831.316,333.508 823.5,334.5C 823.5,336.833 823.5,339.167 823.5,341.5C 830.5,341.5 837.5,341.5 844.5,341.5C 844.5,344.833 844.5,348.167 844.5,351.5C 837.5,351.5 830.5,351.5 823.5,351.5C 823.5,356.833 823.5,362.167 823.5,367.5C 831.5,367.5 839.5,367.5 847.5,367.5C 847.5,370.5 847.5,373.5 847.5,376.5C 836.167,376.5 824.833,376.5 813.5,376.5C 813.5,359.167 813.5,341.833 813.5,324.5C 824.833,324.5 836.167,324.5 847.5,324.5 Z"/></g>
<g><path style="opacity:1" fill="#090a09" d="M 858.5,324.5 C 861.5,324.5 864.5,324.5 867.5,324.5C 867.5,338.833 867.5,353.167 867.5,367.5C 876.5,367.5 885.5,367.5 894.5,367.5C 894.5,370.5 894.5,373.5 894.5,376.5C 882.5,376.5 870.5,376.5 858.5,376.5C 858.5,359.167 858.5,341.833 858.5,324.5 Z"/></g>
<g><path style="opacity:1" fill="#090a09" d="M 906.5,324.5 C 909.5,324.5 912.5,324.5 915.5,324.5C 915.5,341.833 915.5,359.167 915.5,376.5C 912.5,376.5 909.5,376.5 906.5,376.5C 906.5,359.167 906.5,341.833 906.5,324.5 Z"/></g>
<g><path style="opacity:1" fill="#0e0e0e" d="M 962.5,356.5 C 962.783,357.289 963.283,357.956 964,358.5C 964.5,347.172 964.667,335.838 964.5,324.5C 967.5,324.5 970.5,324.5 973.5,324.5C 973.5,341.833 973.5,359.167 973.5,376.5C 970.482,376.665 967.482,376.498 964.5,376C 956.877,365.254 949.377,354.42 942,343.5C 941.5,354.495 941.333,365.495 941.5,376.5C 938.167,376.5 934.833,376.5 931.5,376.5C 931.5,359.167 931.5,341.833 931.5,324.5C 934.898,324.18 938.232,324.513 941.5,325.5C 948.758,335.689 955.758,346.022 962.5,356.5 Z"/></g>
<g><path style="opacity:1" fill="#9d9d9d" d="M 964.5,324.5 C 964.667,335.838 964.5,347.172 964,358.5C 963.283,357.956 962.783,357.289 962.5,356.5C 963.167,345.833 963.833,335.167 964.5,324.5 Z"/></g>
<g><path style="opacity:1" fill="#767676" d="M 328.5,333.5 C 320.684,334.492 312.684,334.826 304.5,334.5C 304.5,336.833 304.5,339.167 304.5,341.5C 303.527,339.052 303.194,336.385 303.5,333.5C 311.833,333.5 320.167,333.5 328.5,333.5 Z"/></g>
<g><path style="opacity:1" fill="#7e7e7e" d="M 467.5,334.5 C 464.167,334.5 460.833,334.5 457.5,334.5C 457.5,336.833 457.5,339.167 457.5,341.5C 456.527,339.052 456.194,336.385 456.5,333.5C 460.371,333.185 464.038,333.518 467.5,334.5 Z"/></g>
<g><path style="opacity:1" fill="#f5f5f5" d="M 718.5,332.5 C 733.652,331.489 741.152,338.489 741,353.5C 735.382,367.484 725.882,370.984 712.5,364C 704.964,355.241 704.63,346.241 711.5,337C 713.898,335.476 716.231,333.976 718.5,332.5 Z"/></g>
<g><path style="opacity:1" fill="#7e7e7f" d="M 847.5,324.5 C 848.479,327.625 848.813,330.958 848.5,334.5C 840.167,334.5 831.833,334.5 823.5,334.5C 831.316,333.508 839.316,333.174 847.5,333.5C 847.5,330.5 847.5,327.5 847.5,324.5 Z"/></g>
<g><path style="opacity:1" fill="#f6f6f6" d="M 769.5,334.5 C 778.399,332.738 785.899,335.071 792,341.5C 797.104,353.517 793.604,362.017 781.5,367C 777.514,367.499 773.514,367.666 769.5,367.5C 769.5,356.5 769.5,345.5 769.5,334.5 Z"/></g>
<g><path style="opacity:1" fill="#f5f5f5" d="M 467.5,334.5 C 469.687,336.282 470.02,338.448 468.5,341C 464.848,341.499 461.182,341.665 457.5,341.5C 457.5,339.167 457.5,336.833 457.5,334.5C 460.833,334.5 464.167,334.5 467.5,334.5 Z"/></g>
<g><path style="opacity:1" fill="#b1b1b1" d="M 867.5,324.5 C 868.496,338.323 868.829,352.323 868.5,366.5C 877.349,366.174 886.016,366.507 894.5,367.5C 885.5,367.5 876.5,367.5 867.5,367.5C 867.5,353.167 867.5,338.833 867.5,324.5 Z"/></g>
<g><path style="opacity:1" fill="#a4a4a4" d="M 858.5,324.5 C 858.5,341.833 858.5,359.167 858.5,376.5C 870.5,376.5 882.5,376.5 894.5,376.5C 882.345,377.495 870.011,377.829 857.5,377.5C 857.17,359.659 857.503,341.992 858.5,324.5 Z"/></g>
<g><path style="opacity:1" fill="#828282" d="M 731.5,400.5 C 739.65,399.507 747.983,399.174 756.5,399.5C 756.768,401.099 756.434,402.432 755.5,403.5C 755.5,402.5 755.5,401.5 755.5,400.5C 747.5,400.5 739.5,400.5 731.5,400.5 Z"/></g>
<g><path style="opacity:1" fill="#1e1e1e" d="M 522.5,432.5 C 521.325,432.719 520.325,432.386 519.5,431.5C 518.5,429.5 517.5,427.5 516.5,425.5C 510.202,424.504 503.868,424.17 497.5,424.5C 497.377,428.806 495.377,431.473 491.5,432.5C 495.563,422.483 499.73,412.483 504,402.5C 505.493,400.44 507.326,400.107 509.5,401.5C 514.428,411.626 518.761,421.959 522.5,432.5 Z"/></g>
<g><path style="opacity:1" fill="#5c5c5c" d="M 530.5,399.5 C 535.032,399.182 539.366,399.515 543.5,400.5C 539.5,400.5 535.5,400.5 531.5,400.5C 531.168,410.855 531.501,421.188 532.5,431.5C 533.167,427.353 533.834,423.353 534.5,419.5C 534.5,423.833 534.5,428.167 534.5,432.5C 533.167,432.5 531.833,432.5 530.5,432.5C 530.5,421.5 530.5,410.5 530.5,399.5 Z"/></g>
<g><path style="opacity:1" fill="#1a1a1a" d="M 543.5,400.5 C 545.655,400.372 547.655,400.872 549.5,402C 555.894,409.932 554.228,415.598 544.5,419C 547.45,423.618 550.784,427.952 554.5,432C 553.167,432.667 551.833,432.667 550.5,432C 547.115,428.283 544.115,424.283 541.5,420C 539.19,419.503 536.857,419.337 534.5,419.5C 533.834,423.353 533.167,427.353 532.5,431.5C 531.501,421.188 531.168,410.855 531.5,400.5C 535.5,400.5 539.5,400.5 543.5,400.5 Z"/></g>
<g><path style="opacity:1" fill="#1a1a1a" d="M 573.5,399.5 C 581.708,398.767 587.708,401.934 591.5,409C 589.288,412.295 587.788,411.795 587,407.5C 582.108,403.224 576.608,402.39 570.5,405C 563.587,411.063 562.753,417.896 568,425.5C 576.096,431.582 582.929,430.415 588.5,422C 589.448,421.517 590.448,421.351 591.5,421.5C 590.312,427.52 586.645,431.02 580.5,432C 564.855,431.67 559.021,423.837 563,408.5C 565.468,404.199 568.968,401.199 573.5,399.5 Z"/></g>
<g><path style="opacity:1" fill="#0b0b0b" d="M 601.5,400.5 C 602.5,400.5 603.5,400.5 604.5,400.5C 604.5,405.167 604.5,409.833 604.5,414.5C 610.5,414.5 616.5,414.5 622.5,414.5C 622.862,409.579 623.862,404.913 625.5,400.5C 625.832,410.855 625.499,421.188 624.5,431.5C 623.833,426.683 623.166,422.017 622.5,417.5C 616.5,417.5 610.5,417.5 604.5,417.5C 604.5,422.5 604.5,427.5 604.5,432.5C 603.5,432.5 602.5,432.5 601.5,432.5C 601.5,421.833 601.5,411.167 601.5,400.5 Z"/></g>
<g><path style="opacity:1" fill="#787878" d="M 626.5,400.5 C 626.167,400.5 625.833,400.5 625.5,400.5C 623.862,404.913 622.862,409.579 622.5,414.5C 622.5,414.167 622.5,413.833 622.5,413.5C 622.5,408.833 622.5,404.167 622.5,399.5C 624.099,399.232 625.432,399.566 626.5,400.5 Z"/></g>
<g><path style="opacity:1" fill="#404040" d="M 625.5,400.5 C 625.833,400.5 626.167,400.5 626.5,400.5C 626.5,411.167 626.5,421.833 626.5,432.5C 625.167,432.5 623.833,432.5 622.5,432.5C 622.5,427.5 622.5,422.5 622.5,417.5C 623.166,422.017 623.833,426.683 624.5,431.5C 625.499,421.188 625.832,410.855 625.5,400.5 Z"/></g>
<g><path style="opacity:1" fill="#0c0c0c" d="M 638.5,400.5 C 639.5,400.5 640.5,400.5 641.5,400.5C 641.5,411.167 641.5,421.833 641.5,432.5C 640.5,432.5 639.5,432.5 638.5,432.5C 638.5,421.833 638.5,411.167 638.5,400.5 Z"/></g>
<g><path style="opacity:1" fill="#7b7b7b" d="M 658.5,400.5 C 657.167,400.5 655.833,400.5 654.5,400.5C 654.5,410.833 654.5,421.167 654.5,431.5C 654.5,431.833 654.5,432.167 654.5,432.5C 653.505,421.679 653.172,410.679 653.5,399.5C 655.415,399.216 657.081,399.549 658.5,400.5 Z"/></g>
<g><path style="opacity:1" fill="#131313" d="M 658.5,400.5 C 662.634,409.44 666.801,418.44 671,427.5C 674.667,418.833 678.333,410.167 682,401.5C 683.699,400.594 685.533,400.261 687.5,400.5C 687.5,411.167 687.5,421.833 687.5,432.5C 686.5,432.5 685.5,432.5 684.5,432.5C 684.666,423.494 684.5,414.494 684,405.5C 683.487,406.527 682.987,407.527 682.5,408.5C 679.327,416.872 675.494,424.872 671,432.5C 669.347,432.18 668.347,431.18 668,429.5C 664.729,421.85 661.563,414.183 658.5,406.5C 658.44,405.957 658.107,405.624 657.5,405.5C 657.149,414.539 656.149,423.206 654.5,431.5C 654.5,421.167 654.5,410.833 654.5,400.5C 655.833,400.5 657.167,400.5 658.5,400.5 Z"/></g>
<g><path style="opacity:1" fill="#181818" d="M 708.5,400.5 C 710.288,400.215 711.955,400.548 713.5,401.5C 718.128,411.75 722.461,422.084 726.5,432.5C 725.178,432.67 724.011,432.337 723,431.5C 722.235,428.804 721.068,426.304 719.5,424C 713.833,423.333 708.167,423.333 702.5,424C 701.144,426.398 699.977,428.898 699,431.5C 697.817,432.731 696.651,432.731 695.5,431.5C 700.122,421.26 704.455,410.927 708.5,400.5 Z"/></g>
<g><path style="opacity:1" fill="#141414" d="M 731.5,400.5 C 739.5,400.5 747.5,400.5 755.5,400.5C 755.5,401.5 755.5,402.5 755.5,403.5C 752.167,403.5 748.833,403.5 745.5,403.5C 744.833,412.675 744.167,422.009 743.5,431.5C 742.833,422.009 742.167,412.675 741.5,403.5C 738.167,403.5 734.833,403.5 731.5,403.5C 731.5,402.5 731.5,401.5 731.5,400.5 Z"/></g>
<g><path style="opacity:1" fill="#161616" d="M 768.5,403.5 C 767.518,406.962 767.185,410.629 767.5,414.5C 772.833,414.5 778.167,414.5 783.5,414.5C 783.5,415.5 783.5,416.5 783.5,417.5C 778.5,417.5 773.5,417.5 768.5,417.5C 767.517,421.298 767.183,425.298 767.5,429.5C 773.167,429.5 778.833,429.5 784.5,429.5C 784.5,430.5 784.5,431.5 784.5,432.5C 777.833,432.5 771.167,432.5 764.5,432.5C 764.5,421.833 764.5,411.167 764.5,400.5C 771.167,400.5 777.833,400.5 784.5,400.5C 784.5,401.5 784.5,402.5 784.5,403.5C 779.167,403.5 773.833,403.5 768.5,403.5 Z"/></g>
<g><path style="opacity:1" fill="#f1f1f1" d="M 717.5,419.5 C 713.167,420.833 708.833,420.833 704.5,419.5C 706.121,414.258 708.288,409.258 711,404.5C 713.712,409.258 715.879,414.258 717.5,419.5 Z"/></g>
<g><path style="opacity:1" fill="#383838" d="M 658.5,406.5 C 657.507,414.984 657.174,423.651 657.5,432.5C 656.5,432.5 655.5,432.5 654.5,432.5C 654.5,432.167 654.5,431.833 654.5,431.5C 656.149,423.206 657.149,414.539 657.5,405.5C 658.107,405.624 658.44,405.957 658.5,406.5 Z"/></g>
<g><path style="opacity:1" fill="#b1b1b1" d="M 684.5,432.5 C 683.833,424.5 683.167,416.5 682.5,408.5C 682.987,407.527 683.487,406.527 684,405.5C 684.5,414.494 684.666,423.494 684.5,432.5 Z"/></g>
<g><path style="opacity:1" fill="#f5f5f5" d="M 534.5,403.5 C 538.514,403.334 542.514,403.501 546.5,404C 550.919,408.819 550.252,412.819 544.5,416C 541.183,416.498 537.85,416.665 534.5,416.5C 534.5,412.167 534.5,407.833 534.5,403.5 Z"/></g>
<g><path style="opacity:1" fill="#c2c2c2" d="M 601.5,400.5 C 602.568,399.566 603.901,399.232 605.5,399.5C 605.5,404.167 605.5,408.833 605.5,413.5C 611.167,413.5 616.833,413.5 622.5,413.5C 622.5,413.833 622.5,414.167 622.5,414.5C 616.5,414.5 610.5,414.5 604.5,414.5C 604.5,409.833 604.5,405.167 604.5,400.5C 603.5,400.5 602.5,400.5 601.5,400.5 Z"/></g>
<g><path style="opacity:1" fill="#aaaaaa" d="M 768.5,403.5 C 768.5,406.833 768.5,410.167 768.5,413.5C 773.695,413.179 778.695,413.513 783.5,414.5C 778.167,414.5 772.833,414.5 767.5,414.5C 767.185,410.629 767.518,406.962 768.5,403.5 Z"/></g>
<g><path style="opacity:1" fill="#f2f2f2" d="M 513.5,419.5 C 509.167,420.833 504.833,420.833 500.5,419.5C 502.121,414.258 504.288,409.258 507,404.5C 509.848,409.214 512.015,414.214 513.5,419.5 Z"/></g>
<g><path style="opacity:1" fill="#4d4d4d" d="M 741.5,403.5 C 742.167,412.675 742.833,422.009 743.5,431.5C 744.167,422.009 744.833,412.675 745.5,403.5C 745.5,413.167 745.5,422.833 745.5,432.5C 744.167,432.5 742.833,432.5 741.5,432.5C 741.5,422.833 741.5,413.167 741.5,403.5 Z"/></g>
<g><path style="opacity:1" fill="#818181" d="M 500.5,419.5 C 504.833,420.833 509.167,420.833 513.5,419.5C 514.043,419.56 514.376,419.893 514.5,420.5C 509.5,421.833 504.5,421.833 499.5,420.5C 499.624,419.893 499.957,419.56 500.5,419.5 Z"/></g>
<g><path style="opacity:1" fill="#818181" d="M 704.5,419.5 C 708.833,420.833 713.167,420.833 717.5,419.5C 718.043,419.56 718.376,419.893 718.5,420.5C 713.5,421.833 708.5,421.833 703.5,420.5C 703.624,419.893 703.957,419.56 704.5,419.5 Z"/></g>
<g><path style="opacity:1" fill="#aaaaaa" d="M 768.5,417.5 C 768.5,421.167 768.5,424.833 768.5,428.5C 774.026,428.179 779.36,428.512 784.5,429.5C 778.833,429.5 773.167,429.5 767.5,429.5C 767.183,425.298 767.517,421.298 768.5,417.5 Z"/></g>
</svg>
