<?xml version="1.0" encoding="UTF-8"?>
<svg xmlns="http://www.w3.org/2000/svg" xmlns:xlink="http://www.w3.org/1999/xlink" width="2000px" height="714px" viewBox="0 0 1999 714" version="1.1">
<g id="surface1">
<path style=" stroke:none;fill-rule:evenodd;fill:rgb(97.254902%,97.254902%,97.254902%);fill-opacity:1;" d="M -0.773438 -0.773438 C 134.65625 -0.773438 270.085938 -0.773438 405.515625 -0.773438 C 403.800781 0.449219 401.742188 1.222656 399.335938 1.546875 C 704.179688 2.574219 704.179688 3.605469 399.335938 4.636719 C 440.53125 5.667969 440.53125 6.695312 399.335938 7.726562 C 638.269531 8.757812 638.269531 9.789062 399.335938 10.816406 C 402.246094 11.152344 404.820312 12.183594 407.0625 13.910156 C 718.085938 14.9375 718.085938 15.96875 407.0625 17 C 437.957031 18.03125 437.957031 19.0625 407.0625 20.089844 C 652.171875 21.121094 652.171875 22.152344 407.0625 23.183594 C 411.761719 23.738281 412.277344 24.765625 408.605469 26.273438 C 485.847656 26.789062 563.085938 27.304688 640.328125 27.816406 C 563.601562 28.332031 486.878906 28.847656 410.148438 29.363281 C 420.964844 29.878906 431.777344 30.394531 442.589844 30.910156 C 429.203125 31.425781 415.816406 31.9375 402.425781 32.453125 C 465.25 32.96875 528.070312 33.484375 590.894531 34 C 528.585938 34.515625 466.277344 35.03125 403.972656 35.546875 C 404.675781 36.183594 405.191406 36.957031 405.515625 37.863281 C 487.902344 39.152344 570.292969 39.925781 652.6875 40.183594 C 570.8125 40.695312 488.9375 41.210938 407.0625 41.726562 C 418.90625 42.242188 430.746094 42.757812 442.589844 43.273438 C 431.261719 43.789062 419.933594 44.304688 408.605469 44.816406 C 469.367188 45.332031 530.132812 45.847656 590.894531 46.363281 C 530.644531 46.878906 470.398438 47.394531 410.148438 47.910156 C 412.726562 48.425781 415.300781 48.9375 417.875 49.453125 C 416.328125 49.96875 414.785156 50.484375 413.238281 51 C 488.9375 51.515625 564.632812 52.03125 640.328125 52.546875 C 565.148438 53.0625 489.964844 53.574219 414.785156 54.089844 C 424.054688 54.605469 433.324219 55.121094 442.589844 55.636719 C 431.261719 56.152344 419.933594 56.667969 408.605469 57.183594 C 473.488281 57.695312 538.371094 58.210938 603.253906 58.726562 C 539.402344 59.242188 475.546875 59.757812 411.695312 60.273438 C 413.753906 60.789062 415.816406 61.304688 417.875 61.816406 C 416.84375 62.332031 415.816406 62.847656 414.785156 63.363281 C 494.085938 63.878906 573.386719 64.394531 652.6875 64.910156 C 574.414062 65.425781 496.144531 65.9375 417.875 66.453125 C 430.234375 66.96875 442.589844 67.484375 454.949219 68 C 440.53125 68.515625 426.113281 69.03125 411.695312 69.546875 C 475.546875 70.0625 539.402344 70.574219 603.253906 71.089844 C 540.945312 71.605469 478.636719 72.121094 416.328125 72.636719 C 417.359375 73.667969 418.390625 74.695312 419.417969 75.726562 C 497.175781 76.242188 574.933594 76.757812 652.6875 77.273438 C 573.386719 77.789062 494.085938 78.304688 414.785156 78.816406 C 428.171875 79.332031 441.5625 79.847656 454.949219 80.363281 C 442.589844 80.878906 430.234375 81.394531 417.875 81.910156 C 479.667969 82.425781 541.460938 82.9375 603.253906 83.453125 C 539.914062 83.96875 476.578125 84.484375 413.238281 85 C 414.976562 85.386719 416.519531 86.15625 417.875 87.316406 C 500.261719 88.605469 582.652344 89.378906 665.046875 89.636719 C 584.714844 90.152344 504.382812 90.667969 424.054688 91.183594 C 434.351562 91.695312 444.652344 92.210938 454.949219 92.726562 C 443.105469 93.242188 431.261719 93.757812 419.417969 94.273438 C 480.699219 94.789062 541.976562 95.304688 603.253906 95.816406 C 543.511719 96.074219 483.78125 96.847656 424.054688 98.136719 C 423.242188 99.207031 422.210938 99.980469 420.964844 100.453125 C 498.207031 100.96875 575.445312 101.484375 652.6875 102 C 577.503906 102.515625 502.324219 103.03125 427.144531 103.546875 C 436.414062 104.0625 445.679688 104.574219 454.949219 105.089844 C 444.136719 105.605469 433.324219 106.121094 422.507812 106.636719 C 486.878906 107.152344 551.242188 107.667969 615.613281 108.183594 C 549.699219 108.695312 483.789062 109.210938 417.875 109.726562 C 421.996094 110.242188 426.113281 110.757812 430.234375 111.273438 C 428.6875 111.789062 427.144531 112.304688 425.597656 112.816406 C 505.414062 113.332031 585.230469 113.847656 665.046875 114.363281 C 583.683594 114.878906 502.324219 115.394531 420.964844 115.910156 C 432.292969 116.425781 443.621094 116.9375 454.949219 117.453125 C 446.195312 117.96875 437.441406 118.484375 428.6875 119 C 490.996094 119.515625 553.304688 120.03125 615.613281 120.546875 C 552.789062 121.0625 489.964844 121.574219 427.144531 122.089844 C 428.171875 122.605469 429.203125 123.121094 430.234375 123.636719 C 428.171875 124.152344 426.113281 124.667969 424.054688 125.183594 C 508.503906 125.695312 592.953125 126.210938 677.40625 126.726562 C 595.527344 127.242188 513.652344 127.757812 431.777344 128.273438 C 443.621094 128.789062 455.464844 129.304688 467.308594 129.816406 C 454.4375 130.332031 441.5625 130.847656 428.6875 131.363281 C 694.398438 132.394531 694.398438 133.425781 428.6875 134.453125 C 431.261719 134.96875 433.835938 135.484375 436.414062 136 C 432.808594 136.515625 429.203125 137.03125 425.597656 137.546875 C 509.535156 138.0625 593.46875 138.574219 677.40625 139.089844 C 596.558594 139.605469 515.710938 140.121094 434.867188 140.636719 C 445.679688 141.152344 456.496094 141.667969 467.308594 142.183594 C 455.980469 142.695312 444.652344 143.210938 433.324219 143.726562 C 494.085938 144.242188 554.847656 144.757812 615.613281 145.273438 C 554.332031 145.789062 493.054688 146.304688 431.777344 146.816406 C 435.382812 147.332031 438.988281 147.847656 442.589844 148.363281 C 438.472656 148.878906 434.351562 149.394531 430.234375 149.910156 C 759.792969 150.9375 759.792969 151.96875 430.234375 153 C 496.144531 154.03125 496.144531 155.058594 430.234375 156.089844 C 492.027344 156.605469 553.820312 157.121094 615.613281 157.636719 C 557.421875 158.152344 499.234375 158.667969 441.046875 159.183594 C 441.753906 159.820312 442.269531 160.59375 442.589844 161.5 C 755.667969 163.304688 755.667969 164.589844 442.589844 165.363281 C 492.027344 166.394531 492.027344 167.421875 442.589844 168.453125 C 508.503906 168.96875 574.414062 169.484375 640.328125 170 C 574.933594 170.515625 509.535156 171.03125 444.136719 171.546875 C 450.316406 172.578125 450.316406 173.605469 444.136719 174.636719 C 521.890625 175.152344 599.648438 175.667969 677.40625 176.183594 C 600.164062 176.695312 522.921875 177.210938 445.679688 177.726562 C 457.007812 178.242188 468.339844 178.757812 479.667969 179.273438 C 469.367188 179.789062 459.070312 180.304688 448.769531 180.816406 C 687.703125 181.847656 687.703125 182.878906 448.769531 183.910156 C 450.832031 184.421875 452.890625 184.941406 454.949219 185.453125 C 451.859375 185.96875 448.769531 186.484375 445.679688 187 C 527.042969 187.515625 608.402344 188.03125 689.761719 188.546875 C 606.855469 189.058594 523.953125 189.578125 441.046875 190.089844 C 492.539062 191.121094 492.539062 192.152344 441.046875 193.183594 C 507.472656 193.695312 573.902344 194.210938 640.328125 194.726562 C 574.933594 195.242188 509.535156 195.757812 444.136719 196.273438 C 445.871094 196.65625 447.417969 197.429688 448.769531 198.589844 C 529.097656 199.878906 609.429688 200.652344 689.761719 200.910156 C 611.492188 201.421875 533.222656 201.941406 454.949219 202.453125 C 467.308594 202.96875 479.667969 203.484375 492.027344 204 C 478.121094 204.515625 464.21875 205.03125 450.316406 205.546875 C 513.652344 206.058594 576.992188 206.578125 640.328125 207.089844 C 575.445312 207.605469 510.5625 208.121094 445.679688 208.636719 C 448.769531 209.152344 451.859375 209.667969 454.949219 210.183594 C 454.4375 210.695312 453.917969 211.210938 453.40625 211.726562 C 536.3125 212.242188 619.214844 212.757812 702.121094 213.273438 C 620.761719 213.789062 539.402344 214.304688 458.039062 214.816406 C 469.367188 215.332031 480.699219 215.847656 492.027344 216.363281 C 478.636719 216.878906 465.25 217.394531 451.859375 217.910156 C 518.800781 218.421875 585.746094 218.941406 652.6875 219.453125 C 586.261719 219.96875 519.832031 220.484375 453.40625 221 C 454.828125 223.714844 456.632812 223.972656 458.8125 221.773438 C 539.746094 224.582031 620.847656 225.871094 702.121094 225.636719 C 619.730469 226.152344 537.339844 226.667969 454.949219 227.183594 C 467.308594 227.695312 479.667969 228.210938 492.027344 228.726562 C 481.726562 229.242188 471.429688 229.757812 461.128906 230.273438 C 524.980469 230.789062 588.835938 231.304688 652.6875 231.816406 C 588.320312 232.332031 523.953125 232.847656 459.585938 233.363281 C 462.160156 233.878906 464.734375 234.394531 467.308594 234.910156 C 463.703125 235.421875 460.097656 235.941406 456.496094 236.453125 C 538.371094 236.96875 620.246094 237.484375 702.121094 238 C 622.820312 238.515625 543.519531 239.03125 464.21875 239.546875 C 477.609375 240.058594 490.996094 240.578125 504.382812 241.089844 C 488.421875 241.605469 472.457031 242.121094 456.496094 242.636719 C 521.890625 243.152344 587.289062 243.667969 652.6875 244.183594 C 590.378906 244.695312 528.070312 245.210938 465.765625 245.726562 C 468.339844 246.242188 470.914062 246.757812 473.488281 247.273438 C 468.855469 247.789062 464.21875 248.304688 459.585938 248.816406 C 544.550781 249.332031 629.515625 249.847656 714.480469 250.363281 C 632.089844 250.878906 549.699219 251.394531 467.308594 251.910156 C 479.667969 252.421875 492.027344 252.941406 504.382812 253.453125 C 494.085938 253.96875 483.789062 254.484375 473.488281 255 C 537.339844 255.515625 601.195312 256.03125 665.046875 256.546875 C 598.617188 257.058594 532.191406 257.578125 465.765625 258.089844 C 468.339844 258.605469 470.914062 259.121094 473.488281 259.636719 C 472.972656 260.152344 472.457031 260.667969 471.941406 261.183594 C 552.789062 261.695312 633.636719 262.210938 714.480469 262.726562 C 631.058594 263.242188 547.640625 263.757812 464.21875 264.273438 C 481.726562 264.789062 499.234375 265.304688 516.742188 265.816406 C 501.292969 266.332031 485.847656 266.847656 470.398438 267.363281 C 535.28125 267.878906 600.164062 268.394531 665.046875 268.910156 C 601.707031 269.421875 538.371094 269.941406 475.03125 270.453125 C 476.769531 270.839844 478.3125 271.613281 479.667969 272.773438 C 562.050781 274.058594 644.445312 274.832031 726.839844 275.089844 C 641.875 275.605469 556.910156 276.121094 471.941406 276.636719 C 486.878906 277.152344 501.808594 277.667969 516.742188 278.183594 C 503.355469 278.695312 489.964844 279.210938 476.578125 279.726562 C 543.519531 280.242188 610.460938 280.757812 677.40625 281.273438 C 611.492188 281.789062 545.582031 282.304688 479.667969 282.816406 C 481.726562 283.332031 483.789062 283.847656 485.847656 284.363281 C 484.816406 284.878906 483.789062 285.394531 482.757812 285.910156 C 564.117188 286.421875 645.476562 286.941406 726.839844 287.453125 C 646.507812 287.96875 566.175781 288.484375 485.847656 289 C 496.144531 289.515625 506.445312 290.03125 516.742188 290.546875 C 503.871094 291.058594 490.996094 291.578125 478.121094 292.089844 C 544.550781 292.605469 610.976562 293.121094 677.40625 293.636719 C 612.007812 294.152344 546.609375 294.667969 481.210938 295.183594 C 494.085938 295.988281 494.601562 297.015625 482.757812 298.273438 C 568.238281 298.789062 653.71875 299.304688 739.199219 299.816406 C 654.230469 300.332031 569.265625 300.847656 484.300781 301.363281 C 499.234375 301.878906 514.167969 302.394531 529.101562 302.910156 C 515.199219 303.421875 501.292969 303.941406 487.390625 304.453125 C 550.730469 304.96875 614.066406 305.484375 677.40625 306 C 614.582031 306.515625 551.757812 307.03125 488.9375 307.546875 C 493.054688 308.578125 493.054688 309.605469 488.9375 310.636719 C 572.355469 311.152344 655.777344 311.667969 739.199219 312.183594 C 656.292969 312.695312 573.386719 313.210938 490.480469 313.726562 C 503.355469 314.242188 516.230469 314.757812 529.101562 315.273438 C 516.742188 315.789062 504.382812 316.304688 492.027344 316.816406 C 772.152344 318.105469 772.152344 318.878906 492.027344 319.136719 C 492.027344 320.683594 492.027344 322.226562 492.027344 323.773438 C 578.539062 323.515625 665.046875 323.773438 751.554688 324.546875 C 665.558594 325.058594 579.566406 325.578125 493.570312 326.089844 C 509.535156 326.605469 525.496094 327.121094 541.460938 327.636719 C 528.070312 328.152344 514.683594 328.667969 501.292969 329.183594 C 769.0625 330.210938 769.0625 331.242188 501.292969 332.273438 C 505.414062 333.304688 505.414062 334.332031 501.292969 335.363281 C 834.976562 336.394531 834.976562 337.421875 501.292969 338.453125 C 510.5625 338.96875 519.832031 339.484375 529.101562 340 C 521.890625 340.515625 514.683594 341.03125 507.472656 341.546875 C 767.003906 342.578125 767.003906 343.605469 507.472656 344.636719 C 519.316406 345.894531 518.804688 346.921875 505.929688 347.726562 C 833.429688 348.757812 833.429688 349.789062 505.929688 350.816406 C 517.773438 351.332031 529.617188 351.847656 541.460938 352.363281 C 531.160156 352.878906 520.863281 353.394531 510.5625 353.910156 C 782.445312 354.683594 782.445312 355.96875 510.5625 357.773438 C 510.242188 358.679688 509.726562 359.449219 509.019531 360.089844 C 593.984375 360.605469 678.949219 361.121094 763.914062 361.636719 C 680.496094 362.152344 597.074219 362.667969 513.652344 363.183594 C 527.042969 363.695312 540.429688 364.210938 553.820312 364.726562 C 539.914062 365.242188 526.011719 365.757812 512.109375 366.273438 C 579.566406 366.789062 647.023438 367.304688 714.480469 367.816406 C 648.5625 368.078125 582.648438 368.847656 516.742188 370.136719 C 516.421875 371.042969 515.902344 371.816406 515.199219 372.453125 C 598.105469 372.96875 681.007812 373.484375 763.914062 374 C 682.554688 374.515625 601.195312 375.03125 519.832031 375.546875 C 531.160156 376.058594 542.492188 376.578125 553.820312 377.089844 C 541.976562 377.605469 530.132812 378.121094 518.289062 378.636719 C 587.804688 379.152344 657.320312 379.667969 726.839844 380.183594 C 658.867188 380.695312 590.894531 381.210938 522.921875 381.726562 C 524.980469 382.242188 527.042969 382.757812 529.101562 383.273438 C 526.011719 383.789062 522.921875 384.304688 519.832031 384.816406 C 609.433594 385.332031 699.03125 385.847656 788.632812 386.363281 C 700.578125 386.878906 612.523438 387.394531 524.46875 387.910156 C 538.371094 388.421875 552.273438 388.941406 566.175781 389.453125 C 553.304688 389.96875 540.429688 390.484375 527.558594 391 C 593.984375 391.515625 660.410156 392.03125 726.839844 392.546875 C 659.898438 393.058594 592.953125 393.578125 526.011719 394.089844 C 527.261719 394.566406 528.289062 395.339844 529.101562 396.410156 C 611.488281 397.695312 693.878906 398.46875 776.273438 398.726562 C 692.851562 399.242188 609.433594 399.757812 526.011719 400.273438 C 539.402344 400.789062 552.789062 401.304688 566.175781 401.816406 C 555.363281 402.332031 544.550781 402.847656 533.734375 403.363281 C 602.222656 403.878906 670.710938 404.394531 739.199219 404.910156 C 670.195312 405.421875 601.195312 405.941406 532.191406 406.453125 C 534.972656 406.945312 535.488281 407.976562 533.734375 409.546875 C 622.820312 410.058594 711.90625 410.578125 800.992188 411.089844 C 712.933594 411.605469 624.878906 412.121094 536.824219 412.636719 C 550.730469 413.152344 564.632812 413.667969 578.535156 414.183594 C 563.601562 414.695312 548.667969 415.210938 533.734375 415.726562 C 602.222656 416.242188 670.710938 416.757812 739.199219 417.273438 C 673.277344 417.53125 607.367188 418.304688 541.460938 419.589844 C 540.648438 420.660156 539.617188 421.433594 538.371094 421.910156 C 625.910156 422.421875 713.449219 422.941406 800.992188 423.453125 C 713.964844 423.96875 626.941406 424.484375 539.914062 425 C 552.789062 425.515625 565.664062 426.03125 578.535156 426.546875 C 566.175781 427.058594 553.820312 427.578125 541.460938 428.089844 C 607.375 428.605469 673.285156 429.121094 739.199219 429.636719 C 673.800781 430.152344 608.402344 430.667969 543.003906 431.183594 C 544.550781 431.695312 546.09375 432.210938 547.640625 432.726562 C 547.125 433.242188 546.609375 433.757812 546.09375 434.273438 C 902.433594 435.304688 902.433594 436.332031 546.09375 437.363281 C 556.910156 437.878906 567.722656 438.394531 578.535156 438.910156 C 568.238281 439.421875 557.9375 439.941406 547.640625 440.453125 C 615.613281 440.96875 683.582031 441.484375 751.554688 442 C 684.097656 442.515625 616.640625 443.03125 549.183594 443.546875 C 551.570312 443.992188 553.628906 445.023438 555.363281 446.636719 C 641.359375 447.152344 727.351562 447.667969 813.347656 448.183594 C 726.324219 448.695312 639.296875 449.210938 552.273438 449.726562 C 565.148438 450.242188 578.023438 450.757812 590.894531 451.273438 C 579.566406 451.789062 568.238281 452.304688 556.910156 452.816406 C 832.917969 453.847656 832.917969 454.878906 556.910156 455.910156 C 559.691406 456.398438 560.203125 457.429688 558.453125 459 C 647.539062 459.515625 736.621094 460.03125 825.707031 460.546875 C 738.167969 461.058594 650.628906 461.578125 563.085938 462.089844 C 572.355469 462.605469 581.625 463.121094 590.894531 463.636719 C 580.59375 464.152344 570.296875 464.667969 560 465.183594 C 627.96875 465.695312 695.941406 466.210938 763.914062 466.726562 C 697.488281 467.242188 631.058594 467.757812 564.632812 468.273438 C 566.691406 469.304688 566.691406 470.332031 564.632812 471.363281 C 929.210938 472.394531 929.210938 473.421875 564.632812 474.453125 C 577.503906 474.96875 590.378906 475.484375 603.253906 476 C 591.925781 476.515625 580.59375 477.03125 569.265625 477.546875 C 845.277344 478.578125 845.277344 479.605469 569.265625 480.636719 C 572.355469 481.152344 575.445312 481.667969 578.535156 482.183594 C 576.476562 482.695312 574.414062 483.210938 572.355469 483.726562 C 660.925781 484.242188 749.496094 484.757812 838.066406 485.273438 C 751.042969 485.789062 664.015625 486.304688 576.992188 486.816406 C 589.863281 487.332031 602.738281 487.847656 615.613281 488.363281 C 601.195312 488.878906 586.773438 489.394531 572.355469 489.910156 C 644.449219 490.421875 716.539062 490.941406 788.632812 491.453125 C 719.113281 491.96875 649.597656 492.484375 580.082031 493 C 581.625 493.515625 583.171875 494.03125 584.714844 494.546875 C 584.199219 495.058594 583.683594 495.578125 583.171875 496.089844 C 939.511719 497.121094 939.511719 498.152344 583.171875 499.183594 C 598.105469 499.695312 613.035156 500.210938 627.96875 500.726562 C 626.445312 518.890625 625.929688 537.179688 626.425781 555.589844 C 624.886719 537.835938 624.375 519.804688 624.878906 501.5 C 620.246094 501.5 615.613281 501.5 610.976562 501.5 C 610.71875 521.082031 610.976562 540.660156 611.75 560.226562 C 618.917969 579.398438 632.566406 586.609375 652.6875 581.863281 C 656.5 583.125 660.621094 583.898438 665.046875 584.183594 C 654.746094 584.695312 644.449219 585.210938 634.148438 585.726562 C 706.242188 586.242188 778.332031 586.757812 850.425781 587.273438 C 777.816406 587.789062 705.210938 588.304688 632.605469 588.816406 C 635.179688 589.332031 637.753906 589.847656 640.328125 590.363281 C 639.8125 590.878906 639.296875 591.394531 638.785156 591.910156 C 729.929688 592.421875 821.074219 592.941406 912.21875 593.453125 C 822.101562 593.96875 731.988281 594.484375 641.875 595 C 653.71875 595.515625 665.558594 596.03125 677.40625 596.546875 C 666.589844 597.058594 655.777344 597.578125 644.964844 598.089844 C 721.691406 598.605469 798.414062 599.121094 875.140625 599.636719 C 797.902344 600.152344 720.660156 600.667969 643.417969 601.183594 C 655.777344 602.210938 655.777344 603.242188 643.417969 604.273438 C 737.136719 604.789062 830.855469 605.304688 924.574219 605.816406 C 831.886719 606.332031 739.199219 606.847656 646.507812 607.363281 C 656.808594 607.878906 667.105469 608.394531 677.40625 608.910156 C 668.136719 609.421875 658.867188 609.941406 649.597656 610.453125 C 950.324219 611.484375 950.324219 612.515625 649.597656 613.546875 C 651.367188 614.542969 652.914062 615.828125 654.230469 617.410156 C 654.214844 615.953125 654.988281 614.925781 656.550781 614.316406 C 659.210938 614.488281 659.464844 615.261719 657.320312 616.636719 C 711.386719 617.410156 765.457031 617.667969 819.527344 617.410156 C 819.527344 634.410156 819.527344 651.410156 819.527344 668.410156 C 815.40625 668.410156 811.289062 668.410156 807.167969 668.410156 C 801.394531 652.117188 794.699219 636.148438 787.085938 620.5 C 783.726562 618.347656 780.898438 618.863281 778.589844 622.046875 C 771.992188 637.472656 765.558594 652.929688 759.28125 668.410156 C 735.585938 668.152344 711.902344 668.410156 688.21875 669.183594 C 701.089844 669.695312 713.964844 670.210938 726.839844 670.726562 C 714.480469 671.242188 702.121094 671.757812 689.761719 672.273438 C 768.035156 672.789062 846.304688 673.304688 924.574219 673.816406 C 847.335938 674.332031 770.09375 674.847656 692.851562 675.363281 C 694.890625 676.4375 696.175781 677.722656 696.714844 679.226562 C 697.746094 678.195312 698.773438 677.167969 699.804688 676.136719 C 702.464844 676.308594 702.722656 677.082031 700.578125 678.453125 C 799.960938 678.96875 899.34375 679.484375 998.726562 680 C 899.859375 680.515625 800.992188 681.03125 702.121094 681.546875 C 714.480469 682.058594 726.839844 682.578125 739.199219 683.089844 C 727.871094 683.605469 716.539062 684.121094 705.210938 684.636719 C 778.332031 685.152344 851.453125 685.667969 924.574219 686.183594 C 852.484375 686.695312 780.394531 687.210938 708.300781 687.726562 C 710.359375 688.242188 712.421875 688.757812 714.480469 689.273438 C 710.875 689.789062 707.269531 690.304688 703.667969 690.816406 C 802.019531 691.332031 900.375 691.847656 998.726562 692.363281 C 901.402344 692.878906 804.078125 693.394531 706.757812 693.910156 C 721.691406 694.421875 736.621094 694.941406 751.554688 695.453125 C 737.652344 695.96875 723.75 696.484375 709.847656 697 C 789.664062 697.515625 869.476562 698.03125 949.292969 698.546875 C 870.507812 699.058594 791.722656 699.578125 712.933594 700.089844 C 713.707031 700.863281 714.480469 701.636719 715.253906 702.410156 C 716.875 700.835938 718.675781 700.578125 720.660156 701.636719 C 719.628906 702.152344 718.601562 702.667969 717.570312 703.183594 C 819.527344 703.695312 921.488281 704.210938 1023.445312 704.726562 C 922.515625 705.242188 821.585938 705.757812 720.660156 706.273438 C 735.078125 706.789062 749.496094 707.304688 763.914062 707.816406 C 748.464844 708.332031 733.019531 708.847656 717.570312 709.363281 C 794.8125 709.878906 872.050781 710.394531 949.292969 710.910156 C 873.335938 711.167969 797.640625 711.941406 722.203125 713.226562 C 481.210938 713.226562 240.21875 713.226562 -0.773438 713.226562 C -0.773438 475.226562 -0.773438 237.226562 -0.773438 -0.773438 Z M -0.773438 -0.773438 "/>
<path style=" stroke:none;fill-rule:evenodd;fill:rgb(97.647059%,97.647059%,97.647059%);fill-opacity:1;" d="M 405.515625 -0.773438 C 936.421875 -0.773438 1467.324219 -0.773438 1998.226562 -0.773438 C 1998.226562 237.226562 1998.226562 475.226562 1998.226562 713.226562 C 1572.890625 713.226562 1147.546875 713.226562 722.203125 713.226562 C 797.640625 711.941406 873.335938 711.167969 949.292969 710.910156 C 872.050781 710.394531 794.8125 709.878906 717.570312 709.363281 C 733.019531 708.847656 748.464844 708.332031 763.914062 707.816406 C 749.496094 707.304688 735.078125 706.789062 720.660156 706.273438 C 821.585938 705.757812 922.515625 705.242188 1023.445312 704.726562 C 921.488281 704.210938 819.527344 703.695312 717.570312 703.183594 C 718.601562 702.667969 719.628906 702.152344 720.660156 701.636719 C 718.675781 700.578125 716.875 700.835938 715.253906 702.410156 C 714.480469 701.636719 713.707031 700.863281 712.933594 700.089844 C 791.722656 699.578125 870.507812 699.058594 949.292969 698.546875 C 869.476562 698.03125 789.664062 697.515625 709.847656 697 C 723.75 696.484375 737.652344 695.96875 751.554688 695.453125 C 736.621094 694.941406 721.691406 694.421875 706.757812 693.910156 C 804.078125 693.394531 901.402344 692.878906 998.726562 692.363281 C 900.375 691.847656 802.019531 691.332031 703.667969 690.816406 C 707.269531 690.304688 710.875 689.789062 714.480469 689.273438 C 712.421875 688.757812 710.359375 688.242188 708.300781 687.726562 C 780.394531 687.210938 852.484375 686.695312 924.574219 686.183594 C 851.453125 685.667969 778.332031 685.152344 705.210938 684.636719 C 716.539062 684.121094 727.871094 683.605469 739.199219 683.089844 C 726.839844 682.578125 714.480469 682.058594 702.121094 681.546875 C 800.992188 681.03125 899.859375 680.515625 998.726562 680 C 899.34375 679.484375 799.960938 678.96875 700.578125 678.453125 C 702.722656 677.082031 702.464844 676.308594 699.804688 676.136719 C 698.773438 677.167969 697.746094 678.195312 696.714844 679.226562 C 696.175781 677.722656 694.890625 676.4375 692.851562 675.363281 C 770.09375 674.847656 847.335938 674.332031 924.574219 673.816406 C 846.304688 673.304688 768.035156 672.789062 689.761719 672.273438 C 702.121094 671.757812 714.480469 671.242188 726.839844 670.726562 C 713.964844 670.210938 701.089844 669.695312 688.21875 669.183594 C 711.902344 668.410156 735.585938 668.152344 759.28125 668.410156 C 765.269531 666.820312 768.359375 662.699219 768.550781 656.046875 C 778.386719 655.535156 788.171875 656.050781 797.902344 657.589844 C 799.445312 660.683594 800.992188 663.773438 802.535156 666.863281 C 803.808594 668.234375 805.355469 668.746094 807.167969 668.410156 C 811.289062 668.410156 815.40625 668.410156 819.527344 668.410156 C 821.585938 668.410156 823.648438 668.410156 825.707031 668.410156 C 825.707031 661.710938 825.707031 655.015625 825.707031 648.316406 C 829.347656 648.066406 832.953125 648.324219 836.519531 649.089844 C 840.5625 655.710938 845.195312 661.890625 850.425781 667.636719 C 852.484375 668.667969 854.542969 668.667969 856.605469 667.636719 C 850.863281 661.378906 845.714844 654.683594 841.15625 647.546875 C 856.183594 642.289062 858.757812 633.53125 848.878906 621.273438 C 846.03125 619.53125 842.941406 618.757812 839.609375 618.953125 C 833.222656 617.433594 826.53125 616.917969 819.527344 617.410156 C 765.457031 617.667969 711.386719 617.410156 657.320312 616.636719 C 659.464844 615.261719 659.210938 614.488281 656.550781 614.316406 C 654.988281 614.925781 654.214844 615.953125 654.230469 617.410156 C 652.914062 615.828125 651.367188 614.542969 649.597656 613.546875 C 950.324219 612.515625 950.324219 611.484375 649.597656 610.453125 C 658.867188 609.941406 668.136719 609.421875 677.40625 608.910156 C 667.105469 608.394531 656.808594 607.878906 646.507812 607.363281 C 739.199219 606.847656 831.886719 606.332031 924.574219 605.816406 C 830.855469 605.304688 737.136719 604.789062 643.417969 604.273438 C 655.777344 603.242188 655.777344 602.210938 643.417969 601.183594 C 720.660156 600.667969 797.902344 600.152344 875.140625 599.636719 C 798.414062 599.121094 721.691406 598.605469 644.964844 598.089844 C 655.777344 597.578125 666.589844 597.058594 677.40625 596.546875 C 665.558594 596.03125 653.71875 595.515625 641.875 595 C 731.988281 594.484375 822.101562 593.96875 912.21875 593.453125 C 821.074219 592.941406 729.929688 592.421875 638.785156 591.910156 C 639.296875 591.394531 639.8125 590.878906 640.328125 590.363281 C 637.753906 589.847656 635.179688 589.332031 632.605469 588.816406 C 705.210938 588.304688 777.816406 587.789062 850.425781 587.273438 C 778.332031 586.757812 706.242188 586.242188 634.148438 585.726562 C 644.449219 585.210938 654.746094 584.695312 665.046875 584.183594 C 660.621094 583.898438 656.5 583.125 652.6875 581.863281 C 662.585938 577.878906 669.023438 570.667969 671.996094 560.226562 C 672.769531 540.660156 673.027344 521.082031 672.769531 501.5 C 668.136719 501.5 663.5 501.5 658.867188 501.5 C 659.546875 521.191406 658.777344 540.765625 656.550781 560.226562 C 646.765625 570.53125 636.980469 570.53125 627.199219 560.226562 C 626.453125 558.761719 626.195312 557.214844 626.425781 555.589844 C 625.929688 537.179688 626.445312 518.890625 627.96875 500.726562 C 613.035156 500.210938 598.105469 499.695312 583.171875 499.183594 C 939.511719 498.152344 939.511719 497.121094 583.171875 496.089844 C 583.683594 495.578125 584.199219 495.058594 584.714844 494.546875 C 583.171875 494.03125 581.625 493.515625 580.082031 493 C 649.597656 492.484375 719.113281 491.96875 788.632812 491.453125 C 716.539062 490.941406 644.449219 490.421875 572.355469 489.910156 C 586.773438 489.394531 601.195312 488.878906 615.613281 488.363281 C 602.738281 487.847656 589.863281 487.332031 576.992188 486.816406 C 664.015625 486.304688 751.042969 485.789062 838.066406 485.273438 C 749.496094 484.757812 660.925781 484.242188 572.355469 483.726562 C 574.414062 483.210938 576.476562 482.695312 578.535156 482.183594 C 575.445312 481.667969 572.355469 481.152344 569.265625 480.636719 C 845.277344 479.605469 845.277344 478.578125 569.265625 477.546875 C 580.59375 477.03125 591.925781 476.515625 603.253906 476 C 590.378906 475.484375 577.503906 474.96875 564.632812 474.453125 C 929.210938 473.421875 929.210938 472.394531 564.632812 471.363281 C 566.691406 470.332031 566.691406 469.304688 564.632812 468.273438 C 631.058594 467.757812 697.488281 467.242188 763.914062 466.726562 C 695.941406 466.210938 627.96875 465.695312 560 465.183594 C 570.296875 464.667969 580.59375 464.152344 590.894531 463.636719 C 581.625 463.121094 572.355469 462.605469 563.085938 462.089844 C 650.628906 461.578125 738.167969 461.058594 825.707031 460.546875 C 736.621094 460.03125 647.539062 459.515625 558.453125 459 C 560.203125 457.429688 559.691406 456.398438 556.910156 455.910156 C 832.917969 454.878906 832.917969 453.847656 556.910156 452.816406 C 568.238281 452.304688 579.566406 451.789062 590.894531 451.273438 C 578.023438 450.757812 565.148438 450.242188 552.273438 449.726562 C 639.296875 449.210938 726.324219 448.695312 813.347656 448.183594 C 727.351562 447.667969 641.359375 447.152344 555.363281 446.636719 C 553.628906 445.023438 551.570312 443.992188 549.183594 443.546875 C 616.640625 443.03125 684.097656 442.515625 751.554688 442 C 683.582031 441.484375 615.613281 440.96875 547.640625 440.453125 C 557.9375 439.941406 568.238281 439.421875 578.535156 438.910156 C 567.722656 438.394531 556.910156 437.878906 546.09375 437.363281 C 902.433594 436.332031 902.433594 435.304688 546.09375 434.273438 C 546.609375 433.757812 547.125 433.242188 547.640625 432.726562 C 546.09375 432.210938 544.550781 431.695312 543.003906 431.183594 C 608.402344 430.667969 673.800781 430.152344 739.199219 429.636719 C 673.285156 429.121094 607.375 428.605469 541.460938 428.089844 C 553.820312 427.578125 566.175781 427.058594 578.535156 426.546875 C 565.664062 426.03125 552.789062 425.515625 539.914062 425 C 626.941406 424.484375 713.964844 423.96875 800.992188 423.453125 C 713.449219 422.941406 625.910156 422.421875 538.371094 421.910156 C 539.617188 421.433594 540.648438 420.660156 541.460938 419.589844 C 607.367188 418.304688 673.277344 417.53125 739.199219 417.273438 C 670.710938 416.757812 602.222656 416.242188 533.734375 415.726562 C 548.667969 415.210938 563.601562 414.695312 578.535156 414.183594 C 564.632812 413.667969 550.730469 413.152344 536.824219 412.636719 C 624.878906 412.121094 712.933594 411.605469 800.992188 411.089844 C 711.90625 410.578125 622.820312 410.058594 533.734375 409.546875 C 535.488281 407.976562 534.972656 406.945312 532.191406 406.453125 C 601.195312 405.941406 670.195312 405.421875 739.199219 404.910156 C 670.710938 404.394531 602.222656 403.878906 533.734375 403.363281 C 544.550781 402.847656 555.363281 402.332031 566.175781 401.816406 C 552.789062 401.304688 539.402344 400.789062 526.011719 400.273438 C 609.433594 399.757812 692.851562 399.242188 776.273438 398.726562 C 693.878906 398.46875 611.488281 397.695312 529.101562 396.410156 C 528.289062 395.339844 527.261719 394.566406 526.011719 394.089844 C 592.953125 393.578125 659.898438 393.058594 726.839844 392.546875 C 660.410156 392.03125 593.984375 391.515625 527.558594 391 C 540.429688 390.484375 553.304688 389.96875 566.175781 389.453125 C 552.273438 388.941406 538.371094 388.421875 524.46875 387.910156 C 612.523438 387.394531 700.578125 386.878906 788.632812 386.363281 C 699.03125 385.847656 609.433594 385.332031 519.832031 384.816406 C 522.921875 384.304688 526.011719 383.789062 529.101562 383.273438 C 527.042969 382.757812 524.980469 382.242188 522.921875 381.726562 C 590.894531 381.210938 658.867188 380.695312 726.839844 380.183594 C 657.320312 379.667969 587.804688 379.152344 518.289062 378.636719 C 530.132812 378.121094 541.976562 377.605469 553.820312 377.089844 C 542.492188 376.578125 531.160156 376.058594 519.832031 375.546875 C 601.195312 375.03125 682.554688 374.515625 763.914062 374 C 681.007812 373.484375 598.105469 372.96875 515.199219 372.453125 C 515.902344 371.816406 516.421875 371.042969 516.742188 370.136719 C 582.648438 368.847656 648.5625 368.078125 714.480469 367.816406 C 647.023438 367.304688 579.566406 366.789062 512.109375 366.273438 C 526.011719 365.757812 539.914062 365.242188 553.820312 364.726562 C 540.429688 364.210938 527.042969 363.695312 513.652344 363.183594 C 597.074219 362.667969 680.496094 362.152344 763.914062 361.636719 C 678.949219 361.121094 593.984375 360.605469 509.019531 360.089844 C 509.726562 359.449219 510.242188 358.679688 510.5625 357.773438 C 782.445312 355.96875 782.445312 354.683594 510.5625 353.910156 C 520.863281 353.394531 531.160156 352.878906 541.460938 352.363281 C 529.617188 351.847656 517.773438 351.332031 505.929688 350.816406 C 833.429688 349.789062 833.429688 348.757812 505.929688 347.726562 C 518.804688 346.921875 519.316406 345.894531 507.472656 344.636719 C 767.003906 343.605469 767.003906 342.578125 507.472656 341.546875 C 514.683594 341.03125 521.890625 340.515625 529.101562 340 C 519.832031 339.484375 510.5625 338.96875 501.292969 338.453125 C 834.976562 337.421875 834.976562 336.394531 501.292969 335.363281 C 505.414062 334.332031 505.414062 333.304688 501.292969 332.273438 C 769.0625 331.242188 769.0625 330.210938 501.292969 329.183594 C 514.683594 328.667969 528.070312 328.152344 541.460938 327.636719 C 525.496094 327.121094 509.535156 326.605469 493.570312 326.089844 C 579.566406 325.578125 665.558594 325.058594 751.554688 324.546875 C 665.046875 323.773438 578.539062 323.515625 492.027344 323.773438 C 492.027344 322.226562 492.027344 320.683594 492.027344 319.136719 C 772.152344 318.878906 772.152344 318.105469 492.027344 316.816406 C 504.382812 316.304688 516.742188 315.789062 529.101562 315.273438 C 516.230469 314.757812 503.355469 314.242188 490.480469 313.726562 C 573.386719 313.210938 656.292969 312.695312 739.199219 312.183594 C 655.777344 311.667969 572.355469 311.152344 488.9375 310.636719 C 493.054688 309.605469 493.054688 308.578125 488.9375 307.546875 C 551.757812 307.03125 614.582031 306.515625 677.40625 306 C 614.066406 305.484375 550.730469 304.96875 487.390625 304.453125 C 501.292969 303.941406 515.199219 303.421875 529.101562 302.910156 C 514.167969 302.394531 499.234375 301.878906 484.300781 301.363281 C 569.265625 300.847656 654.230469 300.332031 739.199219 299.816406 C 653.71875 299.304688 568.238281 298.789062 482.757812 298.273438 C 494.601562 297.015625 494.085938 295.988281 481.210938 295.183594 C 546.609375 294.667969 612.007812 294.152344 677.40625 293.636719 C 610.976562 293.121094 544.550781 292.605469 478.121094 292.089844 C 490.996094 291.578125 503.871094 291.058594 516.742188 290.546875 C 506.445312 290.03125 496.144531 289.515625 485.847656 289 C 566.175781 288.484375 646.507812 287.96875 726.839844 287.453125 C 645.476562 286.941406 564.117188 286.421875 482.757812 285.910156 C 483.789062 285.394531 484.816406 284.878906 485.847656 284.363281 C 483.789062 283.847656 481.726562 283.332031 479.667969 282.816406 C 545.582031 282.304688 611.492188 281.789062 677.40625 281.273438 C 610.460938 280.757812 543.519531 280.242188 476.578125 279.726562 C 489.964844 279.210938 503.355469 278.695312 516.742188 278.183594 C 501.808594 277.667969 486.878906 277.152344 471.941406 276.636719 C 556.910156 276.121094 641.875 275.605469 726.839844 275.089844 C 644.445312 274.832031 562.050781 274.058594 479.667969 272.773438 C 478.3125 271.613281 476.769531 270.839844 475.03125 270.453125 C 538.371094 269.941406 601.707031 269.421875 665.046875 268.910156 C 600.164062 268.394531 535.28125 267.878906 470.398438 267.363281 C 485.847656 266.847656 501.292969 266.332031 516.742188 265.816406 C 499.234375 265.304688 481.726562 264.789062 464.21875 264.273438 C 547.640625 263.757812 631.058594 263.242188 714.480469 262.726562 C 633.636719 262.210938 552.789062 261.695312 471.941406 261.183594 C 472.457031 260.667969 472.972656 260.152344 473.488281 259.636719 C 470.914062 259.121094 468.339844 258.605469 465.765625 258.089844 C 532.191406 257.578125 598.617188 257.058594 665.046875 256.546875 C 601.195312 256.03125 537.339844 255.515625 473.488281 255 C 483.789062 254.484375 494.085938 253.96875 504.382812 253.453125 C 492.027344 252.941406 479.667969 252.421875 467.308594 251.910156 C 549.699219 251.394531 632.089844 250.878906 714.480469 250.363281 C 629.515625 249.847656 544.550781 249.332031 459.585938 248.816406 C 464.21875 248.304688 468.855469 247.789062 473.488281 247.273438 C 470.914062 246.757812 468.339844 246.242188 465.765625 245.726562 C 528.070312 245.210938 590.378906 244.695312 652.6875 244.183594 C 587.289062 243.667969 521.890625 243.152344 456.496094 242.636719 C 472.457031 242.121094 488.421875 241.605469 504.382812 241.089844 C 490.996094 240.578125 477.609375 240.058594 464.21875 239.546875 C 543.519531 239.03125 622.820312 238.515625 702.121094 238 C 620.246094 237.484375 538.371094 236.96875 456.496094 236.453125 C 460.097656 235.941406 463.703125 235.421875 467.308594 234.910156 C 464.734375 234.394531 462.160156 233.878906 459.585938 233.363281 C 523.953125 232.847656 588.320312 232.332031 652.6875 231.816406 C 588.835938 231.304688 524.980469 230.789062 461.128906 230.273438 C 471.429688 229.757812 481.726562 229.242188 492.027344 228.726562 C 479.667969 228.210938 467.308594 227.695312 454.949219 227.183594 C 537.339844 226.667969 619.730469 226.152344 702.121094 225.636719 C 620.847656 225.871094 539.746094 224.582031 458.8125 221.773438 C 456.632812 223.972656 454.828125 223.714844 453.40625 221 C 519.832031 220.484375 586.261719 219.96875 652.6875 219.453125 C 585.746094 218.941406 518.800781 218.421875 451.859375 217.910156 C 465.25 217.394531 478.636719 216.878906 492.027344 216.363281 C 480.699219 215.847656 469.367188 215.332031 458.039062 214.816406 C 539.402344 214.304688 620.761719 213.789062 702.121094 213.273438 C 619.214844 212.757812 536.3125 212.242188 453.40625 211.726562 C 453.917969 211.210938 454.4375 210.695312 454.949219 210.183594 C 451.859375 209.667969 448.769531 209.152344 445.679688 208.636719 C 510.5625 208.121094 575.445312 207.605469 640.328125 207.089844 C 576.992188 206.578125 513.652344 206.058594 450.316406 205.546875 C 464.21875 205.03125 478.121094 204.515625 492.027344 204 C 479.667969 203.484375 467.308594 202.96875 454.949219 202.453125 C 533.222656 201.941406 611.492188 201.421875 689.761719 200.910156 C 609.429688 200.652344 529.097656 199.878906 448.769531 198.589844 C 447.417969 197.429688 445.871094 196.65625 444.136719 196.273438 C 509.535156 195.757812 574.933594 195.242188 640.328125 194.726562 C 573.902344 194.210938 507.472656 193.695312 441.046875 193.183594 C 492.539062 192.152344 492.539062 191.121094 441.046875 190.089844 C 523.953125 189.578125 606.855469 189.058594 689.761719 188.546875 C 608.402344 188.03125 527.042969 187.515625 445.679688 187 C 448.769531 186.484375 451.859375 185.96875 454.949219 185.453125 C 452.890625 184.941406 450.832031 184.421875 448.769531 183.910156 C 687.703125 182.878906 687.703125 181.847656 448.769531 180.816406 C 459.070312 180.304688 469.367188 179.789062 479.667969 179.273438 C 468.339844 178.757812 457.007812 178.242188 445.679688 177.726562 C 522.921875 177.210938 600.164062 176.695312 677.40625 176.183594 C 599.648438 175.667969 521.890625 175.152344 444.136719 174.636719 C 450.316406 173.605469 450.316406 172.578125 444.136719 171.546875 C 509.535156 171.03125 574.933594 170.515625 640.328125 170 C 574.414062 169.484375 508.503906 168.96875 442.589844 168.453125 C 492.027344 167.421875 492.027344 166.394531 442.589844 165.363281 C 755.667969 164.589844 755.667969 163.304688 442.589844 161.5 C 442.269531 160.59375 441.753906 159.820312 441.046875 159.183594 C 499.234375 158.667969 557.421875 158.152344 615.613281 157.636719 C 553.820312 157.121094 492.027344 156.605469 430.234375 156.089844 C 496.144531 155.058594 496.144531 154.03125 430.234375 153 C 759.792969 151.96875 759.792969 150.9375 430.234375 149.910156 C 434.351562 149.394531 438.472656 148.878906 442.589844 148.363281 C 438.988281 147.847656 435.382812 147.332031 431.777344 146.816406 C 493.054688 146.304688 554.332031 145.789062 615.613281 145.273438 C 554.847656 144.757812 494.085938 144.242188 433.324219 143.726562 C 444.652344 143.210938 455.980469 142.695312 467.308594 142.183594 C 456.496094 141.667969 445.679688 141.152344 434.867188 140.636719 C 515.710938 140.121094 596.558594 139.605469 677.40625 139.089844 C 593.46875 138.574219 509.535156 138.0625 425.597656 137.546875 C 429.203125 137.03125 432.808594 136.515625 436.414062 136 C 433.835938 135.484375 431.261719 134.96875 428.6875 134.453125 C 694.398438 133.425781 694.398438 132.394531 428.6875 131.363281 C 441.5625 130.847656 454.4375 130.332031 467.308594 129.816406 C 455.464844 129.304688 443.621094 128.789062 431.777344 128.273438 C 513.652344 127.757812 595.527344 127.242188 677.40625 126.726562 C 592.953125 126.210938 508.503906 125.695312 424.054688 125.183594 C 426.113281 124.667969 428.171875 124.152344 430.234375 123.636719 C 429.203125 123.121094 428.171875 122.605469 427.144531 122.089844 C 489.964844 121.574219 552.789062 121.0625 615.613281 120.546875 C 553.304688 120.03125 490.996094 119.515625 428.6875 119 C 437.441406 118.484375 446.195312 117.96875 454.949219 117.453125 C 443.621094 116.9375 432.292969 116.425781 420.964844 115.910156 C 502.324219 115.394531 583.683594 114.878906 665.046875 114.363281 C 585.230469 113.847656 505.414062 113.332031 425.597656 112.816406 C 427.144531 112.304688 428.6875 111.789062 430.234375 111.273438 C 426.113281 110.757812 421.996094 110.242188 417.875 109.726562 C 483.789062 109.210938 549.699219 108.695312 615.613281 108.183594 C 551.242188 107.667969 486.878906 107.152344 422.507812 106.636719 C 433.324219 106.121094 444.136719 105.605469 454.949219 105.089844 C 445.679688 104.574219 436.414062 104.0625 427.144531 103.546875 C 502.324219 103.03125 577.503906 102.515625 652.6875 102 C 575.445312 101.484375 498.207031 100.96875 420.964844 100.453125 C 422.210938 99.980469 423.242188 99.207031 424.054688 98.136719 C 483.78125 96.847656 543.511719 96.074219 603.253906 95.816406 C 541.976562 95.304688 480.699219 94.789062 419.417969 94.273438 C 431.261719 93.757812 443.105469 93.242188 454.949219 92.726562 C 444.652344 92.210938 434.351562 91.695312 424.054688 91.183594 C 504.382812 90.667969 584.714844 90.152344 665.046875 89.636719 C 582.652344 89.378906 500.261719 88.605469 417.875 87.316406 C 416.519531 86.15625 414.976562 85.386719 413.238281 85 C 476.578125 84.484375 539.914062 83.96875 603.253906 83.453125 C 541.460938 82.9375 479.667969 82.425781 417.875 81.910156 C 430.234375 81.394531 442.589844 80.878906 454.949219 80.363281 C 441.5625 79.847656 428.171875 79.332031 414.785156 78.816406 C 494.085938 78.304688 573.386719 77.789062 652.6875 77.273438 C 574.933594 76.757812 497.175781 76.242188 419.417969 75.726562 C 418.390625 74.695312 417.359375 73.667969 416.328125 72.636719 C 478.636719 72.121094 540.945312 71.605469 603.253906 71.089844 C 539.402344 70.574219 475.546875 70.0625 411.695312 69.546875 C 426.113281 69.03125 440.53125 68.515625 454.949219 68 C 442.589844 67.484375 430.234375 66.96875 417.875 66.453125 C 496.144531 65.9375 574.414062 65.425781 652.6875 64.910156 C 573.386719 64.394531 494.085938 63.878906 414.785156 63.363281 C 415.816406 62.847656 416.84375 62.332031 417.875 61.816406 C 415.816406 61.304688 413.753906 60.789062 411.695312 60.273438 C 475.546875 59.757812 539.402344 59.242188 603.253906 58.726562 C 538.371094 58.210938 473.488281 57.695312 408.605469 57.183594 C 419.933594 56.667969 431.261719 56.152344 442.589844 55.636719 C 433.324219 55.121094 424.054688 54.605469 414.785156 54.089844 C 489.964844 53.574219 565.148438 53.0625 640.328125 52.546875 C 564.632812 52.03125 488.9375 51.515625 413.238281 51 C 414.785156 50.484375 416.328125 49.96875 417.875 49.453125 C 415.300781 48.9375 412.726562 48.425781 410.148438 47.910156 C 470.398438 47.394531 530.644531 46.878906 590.894531 46.363281 C 530.132812 45.847656 469.367188 45.332031 408.605469 44.816406 C 419.933594 44.304688 431.261719 43.789062 442.589844 43.273438 C 430.746094 42.757812 418.90625 42.242188 407.0625 41.726562 C 488.9375 41.210938 570.8125 40.695312 652.6875 40.183594 C 570.292969 39.925781 487.902344 39.152344 405.515625 37.863281 C 405.191406 36.957031 404.675781 36.183594 403.972656 35.546875 C 466.277344 35.03125 528.585938 34.515625 590.894531 34 C 528.070312 33.484375 465.25 32.96875 402.425781 32.453125 C 415.816406 31.9375 429.203125 31.425781 442.589844 30.910156 C 431.777344 30.394531 420.964844 29.878906 410.148438 29.363281 C 486.878906 28.847656 563.601562 28.332031 640.328125 27.816406 C 563.085938 27.304688 485.847656 26.789062 408.605469 26.273438 C 412.277344 24.765625 411.761719 23.738281 407.0625 23.183594 C 652.171875 22.152344 652.171875 21.121094 407.0625 20.089844 C 437.957031 19.0625 437.957031 18.03125 407.0625 17 C 718.085938 15.96875 718.085938 14.9375 407.0625 13.910156 C 404.820312 12.183594 402.246094 11.152344 399.335938 10.816406 C 638.269531 9.789062 638.269531 8.757812 399.335938 7.726562 C 440.53125 6.695312 440.53125 5.667969 399.335938 4.636719 C 704.179688 3.605469 704.179688 2.574219 399.335938 1.546875 C 401.742188 1.222656 403.800781 0.449219 405.515625 -0.773438 Z M 405.515625 -0.773438 "/>
<path style=" stroke:none;fill-rule:evenodd;fill:rgb(4.705882%,4.705882%,4.705882%);fill-opacity:1;" d="M 967.832031 68.773438 C 981.230469 68.515625 994.617188 68.773438 1007.996094 69.546875 C 1030.257812 86.292969 1034.121094 106.640625 1019.582031 130.589844 C 1007.4375 142.972656 992.761719 147.351562 975.554688 143.726562 C 948.257812 129.796875 941.304688 108.933594 954.699219 81.136719 C 958.914062 76.65625 963.292969 72.535156 967.832031 68.773438 Z M 967.832031 68.773438 "/>
<path style=" stroke:none;fill-rule:evenodd;fill:rgb(5.490196%,5.490196%,5.490196%);fill-opacity:1;" d="M 898.3125 74.953125 C 927.953125 76.582031 938.507812 91.523438 929.984375 119.773438 C 919.273438 134.234375 905.628906 137.582031 889.046875 129.816406 C 868.242188 107.277344 871.332031 88.988281 898.3125 74.953125 Z M 898.3125 74.953125 "/>
<path style=" stroke:none;fill-rule:evenodd;fill:rgb(5.490196%,5.490196%,5.490196%);fill-opacity:1;" d="M 1065.15625 74.953125 C 1091.96875 75.738281 1103.042969 89.132812 1098.367188 115.136719 C 1091.117188 130.738281 1079.019531 136.664062 1062.066406 132.910156 C 1042.359375 122.570312 1037.46875 107.375 1047.390625 87.316406 C 1052.769531 82.15625 1058.691406 78.035156 1065.15625 74.953125 Z M 1065.15625 74.953125 "/>
<path style=" stroke:none;fill-rule:evenodd;fill:rgb(6.27451%,6.27451%,6.27451%);fill-opacity:1;" d="M 836.519531 87.316406 C 854.863281 85.828125 862.84375 94.070312 860.464844 112.046875 C 854.640625 122.730469 846.144531 125.5625 834.976562 120.546875 C 822.324219 108.722656 822.835938 97.644531 836.519531 87.316406 Z M 836.519531 87.316406 "/>
<path style=" stroke:none;fill-rule:evenodd;fill:rgb(5.882353%,5.882353%,5.882353%);fill-opacity:1;" d="M 1125.402344 87.316406 C 1145 86.046875 1152.464844 94.804688 1147.804688 113.589844 C 1137.917969 125.09375 1127.617188 125.609375 1116.90625 115.136719 C 1111.804688 103.21875 1114.636719 93.945312 1125.402344 87.316406 Z M 1125.402344 87.316406 "/>
<path style=" stroke:none;fill-rule:evenodd;fill:rgb(5.490196%,5.490196%,5.490196%);fill-opacity:1;" d="M 834.976562 136.773438 C 851.128906 133.90625 863.230469 139.574219 871.28125 153.773438 C 876.195312 183.375 863.582031 196.511719 833.429688 193.183594 C 813.703125 181.371094 809.84375 165.65625 821.84375 146.046875 C 826.070312 142.566406 830.449219 139.472656 834.976562 136.773438 Z M 834.976562 136.773438 "/>
<path style=" stroke:none;fill-rule:evenodd;fill:rgb(5.490196%,5.490196%,5.490196%);fill-opacity:1;" d="M 1122.3125 136.773438 C 1155.851562 136.429688 1166.921875 151.882812 1155.527344 183.136719 C 1146.636719 193.238281 1135.566406 196.585938 1122.3125 193.183594 C 1103.046875 183.238281 1098.15625 168.554688 1107.636719 149.136719 C 1111.917969 144.0625 1116.8125 139.941406 1122.3125 136.773438 Z M 1122.3125 136.773438 "/>
<path style=" stroke:none;fill-rule:evenodd;fill:rgb(5.882353%,5.882353%,5.882353%);fill-opacity:1;" d="M 910.671875 158.410156 C 929.265625 159.050781 936.214844 168.320312 931.527344 186.226562 C 921.226562 196.53125 910.929688 196.53125 900.632812 186.226562 C 895.757812 173.855469 899.101562 164.582031 910.671875 158.410156 Z M 910.671875 158.410156 "/>
<path style=" stroke:none;fill-rule:evenodd;fill:rgb(5.490196%,5.490196%,5.490196%);fill-opacity:1;" d="M 981.734375 158.410156 C 1006.457031 158.667969 1018.042969 171.03125 1016.492188 195.5 C 1008.59375 214.105469 994.949219 220.542969 975.554688 214.816406 C 958.757812 203.492188 954.894531 188.808594 963.96875 170.773438 C 969.347656 165.613281 975.269531 161.492188 981.734375 158.410156 Z M 981.734375 158.410156 "/>
<path style=" stroke:none;fill-rule:evenodd;fill:rgb(5.882353%,5.882353%,5.882353%);fill-opacity:1;" d="M 1054.339844 158.410156 C 1071.929688 157.710938 1079.398438 165.953125 1076.742188 183.136719 C 1071.609375 193.039062 1063.628906 196.386719 1052.796875 193.183594 C 1037.890625 180.90625 1038.40625 169.316406 1054.339844 158.410156 Z M 1054.339844 158.410156 "/>
<path style=" stroke:none;fill-rule:evenodd;fill:rgb(5.098039%,5.098039%,5.098039%);fill-opacity:1;" d="M 836.519531 207.863281 C 869.492188 208.132812 885.199219 224.617188 883.636719 257.316406 C 877.589844 277.5 863.945312 288.316406 842.699219 289.773438 C 813.859375 284.132812 801.242188 266.617188 804.851562 237.226562 C 810.835938 222.214844 821.394531 212.425781 836.519531 207.863281 Z M 836.519531 207.863281 "/>
<path style=" stroke:none;fill-rule:evenodd;fill:rgb(5.098039%,5.098039%,5.098039%);fill-opacity:1;" d="M 1123.859375 207.863281 C 1158.371094 208.640625 1174.078125 226.160156 1170.976562 260.410156 C 1162.242188 281.519531 1146.539062 291.050781 1123.859375 289 C 1096.378906 278.578125 1086.851562 259.261719 1095.277344 231.046875 C 1102.039062 219.820312 1111.5625 212.09375 1123.859375 207.863281 Z M 1123.859375 207.863281 "/>
<path style=" stroke:none;fill-rule:evenodd;fill:rgb(5.098039%,5.098039%,5.098039%);fill-opacity:1;" d="M 916.851562 220.226562 C 934.335938 216.851562 946.953125 223.035156 954.699219 238.773438 C 958.539062 254.578125 953.648438 266.683594 940.023438 275.089844 C 911.28125 281.367188 897.632812 269.777344 899.085938 240.316406 C 902.640625 231.363281 908.5625 224.667969 916.851562 220.226562 Z M 916.851562 220.226562 "/>
<path style=" stroke:none;fill-rule:evenodd;fill:rgb(4.705882%,4.705882%,4.705882%);fill-opacity:1;" d="M 1038.894531 220.226562 C 1068.222656 218.390625 1080.320312 231.785156 1075.195312 260.410156 C 1067.285156 274.738281 1055.1875 280.148438 1038.894531 276.636719 C 1020.441406 266.59375 1015.550781 251.914062 1024.21875 232.589844 C 1028.5 227.515625 1033.390625 223.394531 1038.894531 220.226562 Z M 1038.894531 220.226562 "/>
<path style=" stroke:none;fill-rule:evenodd;fill:rgb(5.490196%,5.490196%,5.490196%);fill-opacity:1;" d="M 981.734375 231.046875 C 997.894531 229.667969 1005.878906 236.882812 1005.679688 252.683594 C 1001.53125 264.027344 993.550781 268.40625 981.734375 265.816406 C 971.585938 260.167969 968.238281 251.667969 971.691406 240.316406 C 974.878906 236.867188 978.226562 233.773438 981.734375 231.046875 Z M 981.734375 231.046875 "/>
<path style=" stroke:none;fill-rule:evenodd;fill:rgb(5.490196%,5.490196%,5.490196%);fill-opacity:1;" d="M 980.191406 280.5 C 998.164062 278.023438 1010.261719 285.234375 1016.492188 302.136719 C 1017.75 327.667969 1005.648438 339.773438 980.191406 338.453125 C 959.417969 328.648438 954.007812 313.453125 963.96875 292.863281 C 968.378906 287.128906 973.785156 283.007812 980.191406 280.5 Z M 980.191406 280.5 "/>
<path style=" stroke:none;fill-rule:evenodd;fill:rgb(5.490196%,5.490196%,5.490196%);fill-opacity:1;" d="M 833.429688 303.683594 C 860.691406 300.316406 873.824219 312.164062 872.824219 339.226562 C 861.84375 361.484375 845.625 366.378906 824.164062 353.910156 C 809.40625 333.78125 812.496094 317.039062 833.429688 303.683594 Z M 833.429688 303.683594 "/>
<path style=" stroke:none;fill-rule:evenodd;fill:rgb(5.490196%,5.490196%,5.490196%);fill-opacity:1;" d="M 907.582031 303.683594 C 927.949219 301.636719 935.933594 310.390625 931.527344 329.953125 C 921.105469 342.179688 910.808594 342.179688 900.632812 329.953125 C 896.078125 319.308594 898.394531 310.554688 907.582031 303.683594 Z M 907.582031 303.683594 "/>
<path style=" stroke:none;fill-rule:evenodd;fill:rgb(6.27451%,6.27451%,6.27451%);fill-opacity:1;" d="M 1052.796875 303.683594 C 1074.617188 303.085938 1081.570312 312.875 1073.652344 333.046875 C 1061.003906 342.785156 1050.707031 340.726562 1042.753906 326.863281 C 1040.230469 316.46875 1043.578125 308.742188 1052.796875 303.683594 Z M 1052.796875 303.683594 "/>
<path style=" stroke:none;fill-rule:evenodd;fill:rgb(5.098039%,5.098039%,5.098039%);fill-opacity:1;" d="M 1120.769531 303.683594 C 1143.589844 299.351562 1156.980469 308.363281 1160.933594 330.726562 C 1158.179688 353.511719 1145.308594 363.296875 1122.3125 360.089844 C 1105.941406 351.644531 1100.019531 338.507812 1104.546875 320.683594 C 1106.605469 317.589844 1108.667969 314.5 1110.726562 311.410156 C 1114.359375 309.042969 1117.707031 306.46875 1120.769531 303.683594 Z M 1120.769531 303.683594 "/>
<path style=" stroke:none;fill-rule:evenodd;fill:rgb(4.705882%,4.705882%,4.705882%);fill-opacity:1;" d="M 975.554688 353.136719 C 1011.046875 349.757812 1028.296875 365.726562 1027.308594 401.046875 C 1022.941406 417.773438 1012.386719 428.335938 995.636719 432.726562 C 966.3125 434.304688 950.351562 420.394531 947.75 391 C 949.316406 372.644531 958.585938 360.023438 975.554688 353.136719 Z M 975.554688 353.136719 "/>
<path style=" stroke:none;fill-rule:evenodd;fill:rgb(5.490196%,5.490196%,5.490196%);fill-opacity:1;" d="M 895.222656 363.953125 C 922.53125 361.652344 935.148438 374.015625 933.074219 401.046875 C 926.109375 418.273438 913.492188 424.710938 895.222656 420.363281 C 875.957031 410.417969 871.066406 395.738281 880.546875 376.316406 C 884.832031 371.246094 889.722656 367.121094 895.222656 363.953125 Z M 895.222656 363.953125 "/>
<path style=" stroke:none;fill-rule:evenodd;fill:rgb(5.490196%,5.490196%,5.490196%);fill-opacity:1;" d="M 1062.066406 363.953125 C 1087.910156 362.027344 1100.523438 373.875 1099.914062 399.5 C 1091.914062 419.078125 1077.757812 425.519531 1057.429688 418.816406 C 1042.28125 408.378906 1038.417969 394.722656 1045.84375 377.863281 C 1050.230469 371.949219 1055.640625 367.3125 1062.066406 363.953125 Z M 1062.066406 363.953125 "/>
<path style=" stroke:none;fill-rule:evenodd;fill:rgb(5.882353%,5.882353%,5.882353%);fill-opacity:1;" d="M 838.066406 374.773438 C 855.589844 374.011719 863.058594 382.253906 860.464844 399.5 C 855.332031 409.402344 847.351562 412.753906 836.519531 409.546875 C 821.617188 397.269531 822.132812 385.679688 838.066406 374.773438 Z M 838.066406 374.773438 "/>
<path style=" stroke:none;fill-rule:evenodd;fill:rgb(5.882353%,5.882353%,5.882353%);fill-opacity:1;" d="M 1125.402344 374.773438 C 1141.519531 373.382812 1149.503906 380.59375 1149.347656 396.410156 C 1145.394531 407.792969 1137.414062 412.171875 1125.402344 409.546875 C 1115.503906 404.410156 1112.15625 396.425781 1115.363281 385.589844 C 1117.980469 381.175781 1121.328125 377.570312 1125.402344 374.773438 Z M 1125.402344 374.773438 "/>
<path style=" stroke:none;fill-rule:evenodd;fill:rgb(6.666667%,6.666667%,6.666667%);fill-opacity:1;" d="M 550.730469 498.410156 C 569.042969 497.210938 583.972656 503.648438 595.527344 517.726562 C 592.484375 521.304688 588.878906 524.140625 584.714844 526.226562 C 571.742188 512.101562 557.324219 510.300781 541.460938 520.816406 C 532.65625 531.941406 531.367188 544.046875 537.597656 557.136719 C 545.875 567.3125 556.429688 570.660156 569.265625 567.183594 C 575.046875 564.496094 579.9375 560.632812 583.941406 555.589844 C 588.027344 558.386719 591.890625 561.480469 595.527344 564.863281 C 581.074219 582.34375 563.050781 587.238281 541.460938 579.546875 C 517.816406 563.5 512.410156 542.636719 525.238281 516.953125 C 532.390625 508.640625 540.886719 502.460938 550.730469 498.410156 Z M 550.730469 498.410156 "/>
<path style=" stroke:none;fill-rule:evenodd;fill:rgb(6.27451%,6.27451%,6.27451%);fill-opacity:1;" d="M 1108.410156 498.410156 C 1147.554688 498.9375 1163.777344 518.511719 1157.070312 557.136719 C 1145.363281 579.605469 1127.082031 587.589844 1102.230469 581.089844 C 1076.082031 565.867188 1069.648438 544.488281 1082.921875 516.953125 C 1090.070312 508.640625 1098.566406 502.460938 1108.410156 498.410156 Z M 1108.410156 498.410156 "/>
<path style=" stroke:none;fill-rule:evenodd;fill:rgb(6.666667%,6.666667%,6.666667%);fill-opacity:1;" d="M 1550.230469 499.953125 C 1567.609375 496.535156 1582.546875 500.914062 1595.027344 513.089844 C 1591.660156 516.722656 1588.046875 520.070312 1584.214844 523.136719 C 1573.679688 513.175781 1561.847656 511.375 1548.683594 517.726562 C 1534.980469 529.316406 1532.664062 542.964844 1541.734375 558.683594 C 1554.199219 569.851562 1567.59375 570.882812 1581.898438 561.773438 C 1582.671875 555.613281 1582.933594 549.429688 1582.671875 543.226562 C 1575.457031 543.226562 1568.257812 543.226562 1561.042969 543.226562 C 1561.042969 538.078125 1561.042969 532.921875 1561.042969 527.773438 C 1573.402344 527.773438 1585.761719 527.773438 1598.117188 527.773438 C 1608.3125 561.53125 1596.203125 580.078125 1561.816406 583.410156 C 1535.503906 580.300781 1521.855469 565.359375 1520.878906 538.589844 C 1523.121094 519.875 1532.902344 506.996094 1550.230469 499.953125 Z M 1550.230469 499.953125 "/>
<path style=" stroke:none;fill-rule:evenodd;fill:rgb(6.666667%,6.666667%,6.666667%);fill-opacity:1;" d="M 399.335938 499.953125 C 407.9375 499.984375 416.175781 501.789062 424.054688 505.363281 C 428.28125 507.46875 431.882812 510.304688 434.867188 513.863281 C 432.238281 517.785156 428.890625 520.875 424.824219 523.136719 C 419.578125 518.464844 413.398438 515.886719 406.289062 515.410156 C 399.972656 515.34375 395.597656 518.175781 393.15625 523.910156 C 394.683594 527.496094 397.257812 530.070312 400.882812 531.636719 C 409.707031 533.972656 418.460938 536.546875 427.144531 539.363281 C 437.335938 548.90625 439.136719 559.980469 432.550781 572.589844 C 416.621094 586.199219 399.882812 586.972656 382.34375 574.910156 C 379.703125 572.574219 377.132812 570.257812 374.621094 567.953125 C 377.683594 564.117188 381.03125 560.511719 384.660156 557.136719 C 393.050781 565.589844 403.09375 568.9375 414.785156 567.183594 C 423.476562 563.339844 424.503906 558.1875 417.875 551.726562 C 407.601562 550.191406 397.816406 547.101562 388.523438 542.453125 C 378.375 533.453125 376.570312 522.890625 383.117188 510.773438 C 387.746094 505.769531 393.152344 502.164062 399.335938 499.953125 Z M 399.335938 499.953125 "/>
<path style=" stroke:none;fill-rule:evenodd;fill:rgb(5.098039%,5.098039%,5.098039%);fill-opacity:1;" d="M 507.472656 515.410156 C 494.601562 515.410156 481.726562 515.410156 468.855469 515.410156 C 468.378906 519.867188 468.894531 523.988281 470.398438 527.773438 C 481.210938 527.773438 492.027344 527.773438 502.839844 527.773438 C 502.839844 532.921875 502.839844 538.078125 502.839844 543.226562 C 492.027344 543.226562 481.210938 543.226562 470.398438 543.226562 C 470.398438 551.46875 470.398438 559.710938 470.398438 567.953125 C 482.757812 567.953125 495.117188 567.953125 507.472656 567.953125 C 507.472656 572.589844 507.472656 577.226562 507.472656 581.863281 C 489.964844 581.863281 472.457031 581.863281 454.949219 581.863281 C 454.949219 555.078125 454.949219 528.289062 454.949219 501.5 C 472.457031 501.5 489.964844 501.5 507.472656 501.5 C 507.472656 506.136719 507.472656 510.773438 507.472656 515.410156 Z M 507.472656 515.410156 "/>
<path style=" stroke:none;fill-rule:evenodd;fill:rgb(4.705882%,4.705882%,4.705882%);fill-opacity:1;" d="M 626.425781 555.589844 C 626.195312 557.214844 626.453125 558.761719 627.199219 560.226562 C 636.980469 570.53125 646.765625 570.53125 656.550781 560.226562 C 658.777344 540.765625 659.546875 521.191406 658.867188 501.5 C 663.5 501.5 668.136719 501.5 672.769531 501.5 C 673.027344 521.082031 672.769531 540.660156 671.996094 560.226562 C 669.023438 570.667969 662.585938 577.878906 652.6875 581.863281 C 632.566406 586.609375 618.917969 579.398438 611.75 560.226562 C 610.976562 540.660156 610.71875 521.082031 610.976562 501.5 C 615.613281 501.5 620.246094 501.5 624.878906 501.5 C 624.375 519.804688 624.886719 537.835938 626.425781 555.589844 Z M 626.425781 555.589844 "/>
<path style=" stroke:none;fill-rule:evenodd;fill:rgb(5.098039%,5.098039%,5.098039%);fill-opacity:1;" d="M 691.308594 501.5 C 702.648438 501.242188 713.976562 501.5 725.292969 502.273438 C 744.234375 513.089844 745.777344 526.226562 729.929688 541.683594 C 739.199219 554.558594 748.464844 567.441406 757.734375 580.316406 C 752.140625 582.109375 746.476562 582.367188 740.742188 581.089844 C 732.058594 569.636719 723.5625 558.046875 715.253906 546.316406 C 712.488281 543.644531 709.140625 542.617188 705.210938 543.226562 C 705.210938 556.105469 705.210938 568.984375 705.210938 581.863281 C 700.578125 581.863281 695.941406 581.863281 691.308594 581.863281 C 691.308594 555.078125 691.308594 528.289062 691.308594 501.5 Z M 691.308594 501.5 "/>
<path style=" stroke:none;fill-rule:evenodd;fill:rgb(7.843137%,7.843137%,7.843137%);fill-opacity:1;" d="M 773.183594 501.5 C 778.332031 501.5 783.484375 501.5 788.632812 501.5 C 788.632812 528.289062 788.632812 555.078125 788.632812 581.863281 C 783.484375 581.863281 778.332031 581.863281 773.183594 581.863281 C 773.183594 555.078125 773.183594 528.289062 773.183594 501.5 Z M 773.183594 501.5 "/>
<path style=" stroke:none;fill-rule:evenodd;fill:rgb(5.098039%,5.098039%,5.098039%);fill-opacity:1;" d="M 808.714844 501.5 C 826.738281 501.5 844.761719 501.5 862.785156 501.5 C 862.785156 506.652344 862.785156 511.804688 862.785156 516.953125 C 856.089844 516.953125 849.394531 516.953125 842.699219 516.953125 C 842.699219 538.589844 842.699219 560.226562 842.699219 581.863281 C 838.066406 581.863281 833.429688 581.863281 828.796875 581.863281 C 828.796875 560.226562 828.796875 538.589844 828.796875 516.953125 C 822.101562 516.953125 815.40625 516.953125 808.714844 516.953125 C 808.714844 511.804688 808.714844 506.652344 808.714844 501.5 Z M 808.714844 501.5 "/>
<path style=" stroke:none;fill-rule:evenodd;fill:rgb(6.27451%,6.27451%,6.27451%);fill-opacity:1;" d="M 873.597656 503.046875 C 879.546875 501.023438 885.726562 501.023438 892.136719 503.046875 C 898.054688 510.773438 903.980469 518.5 909.898438 526.226562 C 915.820312 518.242188 921.746094 510.257812 927.664062 502.273438 C 933.84375 501.242188 940.023438 501.242188 946.203125 502.273438 C 936.109375 515 926.585938 528.136719 917.625 541.683594 C 916.851562 555.066406 916.59375 568.460938 916.851562 581.863281 C 911.703125 581.863281 906.550781 581.863281 901.402344 581.863281 C 901.660156 567.945312 901.402344 554.035156 900.632812 540.136719 C 891.234375 527.925781 882.222656 515.558594 873.597656 503.046875 Z M 873.597656 503.046875 "/>
<path style=" stroke:none;fill-rule:evenodd;fill:rgb(5.882353%,5.882353%,5.882353%);fill-opacity:1;" d="M 987.914062 501.5 C 993.164062 501.003906 998.3125 501.519531 1003.363281 503.046875 C 1010.015625 512.535156 1016.96875 521.808594 1024.21875 530.863281 C 1031.464844 521.808594 1038.417969 512.535156 1045.070312 503.046875 C 1050.121094 501.519531 1055.269531 501.003906 1060.519531 501.5 C 1060.519531 528.289062 1060.519531 555.078125 1060.519531 581.863281 C 1055.371094 581.863281 1050.222656 581.863281 1045.070312 581.863281 C 1045.332031 564.339844 1045.070312 546.824219 1044.300781 529.316406 C 1037.605469 538.589844 1030.910156 547.863281 1024.21875 557.136719 C 1017.523438 547.863281 1010.828125 538.589844 1004.132812 529.316406 C 1003.363281 546.824219 1003.105469 564.339844 1003.363281 581.863281 C 998.214844 581.863281 993.0625 581.863281 987.914062 581.863281 C 987.914062 555.078125 987.914062 528.289062 987.914062 501.5 Z M 987.914062 501.5 "/>
<path style=" stroke:none;fill-rule:evenodd;fill:rgb(7.058824%,7.058824%,7.058824%);fill-opacity:1;" d="M 1173.292969 501.5 C 1185.660156 501.242188 1198.019531 501.5 1210.367188 502.273438 C 1238.921875 513.292969 1247.933594 533.125 1237.402344 561.773438 C 1230.96875 571.816406 1221.957031 578.257812 1210.367188 581.089844 C 1198.019531 581.863281 1185.660156 582.121094 1173.292969 581.863281 C 1173.292969 555.078125 1173.292969 528.289062 1173.292969 501.5 Z M 1173.292969 501.5 "/>
<path style=" stroke:none;fill-rule:evenodd;fill:rgb(5.098039%,5.098039%,5.098039%);fill-opacity:1;" d="M 1309.238281 501.5 C 1309.238281 506.136719 1309.238281 510.773438 1309.238281 515.410156 C 1296.59375 514.90625 1284.234375 515.421875 1272.160156 516.953125 C 1272.160156 520.558594 1272.160156 524.167969 1272.160156 527.773438 C 1282.976562 527.773438 1293.789062 527.773438 1304.601562 527.773438 C 1304.601562 532.921875 1304.601562 538.078125 1304.601562 543.226562 C 1293.789062 543.226562 1282.976562 543.226562 1272.160156 543.226562 C 1272.160156 551.46875 1272.160156 559.710938 1272.160156 567.953125 C 1284.519531 567.953125 1296.878906 567.953125 1309.238281 567.953125 C 1309.238281 572.589844 1309.238281 577.226562 1309.238281 581.863281 C 1291.730469 581.863281 1274.21875 581.863281 1256.714844 581.863281 C 1256.714844 555.078125 1256.714844 528.289062 1256.714844 501.5 C 1274.21875 501.5 1291.730469 501.5 1309.238281 501.5 Z M 1309.238281 501.5 "/>
<path style=" stroke:none;fill-rule:evenodd;fill:rgb(3.529412%,3.921569%,3.529412%);fill-opacity:1;" d="M 1326.230469 501.5 C 1330.863281 501.5 1335.5 501.5 1340.132812 501.5 C 1340.132812 523.652344 1340.132812 545.804688 1340.132812 567.953125 C 1354.035156 567.953125 1367.941406 567.953125 1381.84375 567.953125 C 1381.84375 572.589844 1381.84375 577.226562 1381.84375 581.863281 C 1363.304688 581.863281 1344.769531 581.863281 1326.230469 581.863281 C 1326.230469 555.078125 1326.230469 528.289062 1326.230469 501.5 Z M 1326.230469 501.5 "/>
<path style=" stroke:none;fill-rule:evenodd;fill:rgb(3.529412%,3.921569%,3.529412%);fill-opacity:1;" d="M 1400.382812 501.5 C 1405.015625 501.5 1409.648438 501.5 1414.285156 501.5 C 1414.285156 528.289062 1414.285156 555.078125 1414.285156 581.863281 C 1409.648438 581.863281 1405.015625 581.863281 1400.382812 581.863281 C 1400.382812 555.078125 1400.382812 528.289062 1400.382812 501.5 Z M 1400.382812 501.5 "/>
<path style=" stroke:none;fill-rule:evenodd;fill:rgb(5.490196%,5.490196%,5.490196%);fill-opacity:1;" d="M 1486.890625 550.953125 C 1487.328125 552.175781 1488.101562 553.203125 1489.207031 554.046875 C 1489.980469 536.539062 1490.238281 519.023438 1489.980469 501.5 C 1494.617188 501.5 1499.25 501.5 1503.882812 501.5 C 1503.882812 528.289062 1503.882812 555.078125 1503.882812 581.863281 C 1499.222656 582.117188 1494.585938 581.859375 1489.980469 581.089844 C 1478.203125 564.484375 1466.617188 547.738281 1455.222656 530.863281 C 1454.449219 547.855469 1454.191406 564.855469 1454.449219 581.863281 C 1449.300781 581.863281 1444.152344 581.863281 1439 581.863281 C 1439 555.078125 1439 528.289062 1439 501.5 C 1444.25 501.003906 1449.402344 501.519531 1454.449219 503.046875 C 1465.664062 518.792969 1476.476562 534.761719 1486.890625 550.953125 Z M 1486.890625 550.953125 "/>
<path style=" stroke:none;fill-rule:evenodd;fill:rgb(61.568627%,61.568627%,61.568627%);fill-opacity:1;" d="M 1489.980469 501.5 C 1490.238281 519.023438 1489.980469 536.539062 1489.207031 554.046875 C 1488.101562 553.203125 1487.328125 552.175781 1486.890625 550.953125 C 1487.921875 534.46875 1488.949219 517.984375 1489.980469 501.5 Z M 1489.980469 501.5 "/>
<path style=" stroke:none;fill-rule:evenodd;fill:rgb(46.27451%,46.27451%,46.27451%);fill-opacity:1;" d="M 507.472656 515.410156 C 495.398438 516.941406 483.042969 517.457031 470.398438 516.953125 C 470.398438 520.558594 470.398438 524.167969 470.398438 527.773438 C 468.894531 523.988281 468.378906 519.867188 468.855469 515.410156 C 481.726562 515.410156 494.601562 515.410156 507.472656 515.410156 Z M 507.472656 515.410156 "/>
<path style=" stroke:none;fill-rule:evenodd;fill:rgb(49.411765%,49.411765%,49.411765%);fill-opacity:1;" d="M 722.203125 516.953125 C 717.054688 516.953125 711.90625 516.953125 706.757812 516.953125 C 706.757812 520.558594 706.757812 524.167969 706.757812 527.773438 C 705.253906 523.988281 704.738281 519.867188 705.210938 515.410156 C 711.191406 514.921875 716.855469 515.4375 722.203125 516.953125 Z M 722.203125 516.953125 "/>
<path style=" stroke:none;fill-rule:evenodd;fill:rgb(96.078431%,96.078431%,96.078431%);fill-opacity:1;" d="M 1109.953125 513.863281 C 1133.363281 512.300781 1144.949219 523.121094 1144.714844 546.316406 C 1136.035156 567.929688 1121.359375 573.339844 1100.6875 562.546875 C 1089.042969 549.007812 1088.527344 535.101562 1099.140625 520.816406 C 1102.84375 518.464844 1106.449219 516.144531 1109.953125 513.863281 Z M 1109.953125 513.863281 "/>
<path style=" stroke:none;fill-rule:evenodd;fill:rgb(49.411765%,49.411765%,49.803922%);fill-opacity:1;" d="M 1309.238281 501.5 C 1310.75 506.328125 1311.265625 511.480469 1310.78125 516.953125 C 1297.910156 516.953125 1285.035156 516.953125 1272.160156 516.953125 C 1284.234375 515.421875 1296.59375 514.90625 1309.238281 515.410156 C 1309.238281 510.773438 1309.238281 506.136719 1309.238281 501.5 Z M 1309.238281 501.5 "/>
<path style=" stroke:none;fill-rule:evenodd;fill:rgb(96.470588%,96.470588%,96.470588%);fill-opacity:1;" d="M 1188.742188 516.953125 C 1202.488281 514.230469 1214.074219 517.835938 1223.5 527.773438 C 1231.382812 546.34375 1225.976562 559.480469 1207.277344 567.183594 C 1201.121094 567.953125 1194.941406 568.210938 1188.742188 567.953125 C 1188.742188 550.953125 1188.742188 533.953125 1188.742188 516.953125 Z M 1188.742188 516.953125 "/>
<path style=" stroke:none;fill-rule:evenodd;fill:rgb(96.078431%,96.078431%,96.078431%);fill-opacity:1;" d="M 722.203125 516.953125 C 725.582031 519.707031 726.097656 523.054688 723.75 527 C 718.109375 527.769531 712.445312 528.027344 706.757812 527.773438 C 706.757812 524.167969 706.757812 520.558594 706.757812 516.953125 C 711.90625 516.953125 717.054688 516.953125 722.203125 516.953125 Z M 722.203125 516.953125 "/>
<path style=" stroke:none;fill-rule:evenodd;fill:rgb(69.411765%,69.411765%,69.411765%);fill-opacity:1;" d="M 1340.132812 501.5 C 1341.671875 522.863281 1342.1875 544.5 1341.679688 566.410156 C 1355.347656 565.90625 1368.738281 566.417969 1381.84375 567.953125 C 1367.941406 567.953125 1354.035156 567.953125 1340.132812 567.953125 C 1340.132812 545.804688 1340.132812 523.652344 1340.132812 501.5 Z M 1340.132812 501.5 "/>
<path style=" stroke:none;fill-rule:evenodd;fill:rgb(64.313725%,64.313725%,64.313725%);fill-opacity:1;" d="M 1326.230469 501.5 C 1326.230469 528.289062 1326.230469 555.078125 1326.230469 581.863281 C 1344.769531 581.863281 1363.304688 581.863281 1381.84375 581.863281 C 1363.066406 583.402344 1344.011719 583.917969 1324.683594 583.410156 C 1324.175781 555.835938 1324.691406 528.53125 1326.230469 501.5 Z M 1326.230469 501.5 "/>
<path style=" stroke:none;fill-rule:evenodd;fill:rgb(50.980392%,50.980392%,50.980392%);fill-opacity:1;" d="M 1130.039062 618.953125 C 1142.628906 617.417969 1155.5 616.90625 1168.65625 617.410156 C 1169.070312 619.878906 1168.554688 621.941406 1167.113281 623.589844 C 1167.113281 622.046875 1167.113281 620.5 1167.113281 618.953125 C 1154.753906 618.953125 1142.394531 618.953125 1130.039062 618.953125 Z M 1130.039062 618.953125 "/>
<path style=" stroke:none;fill-rule:evenodd;fill:rgb(11.764706%,11.764706%,11.764706%);fill-opacity:1;" d="M 807.167969 668.410156 C 805.355469 668.746094 803.808594 668.234375 802.535156 666.863281 C 800.992188 663.773438 799.445312 660.683594 797.902344 657.589844 C 788.171875 656.050781 778.386719 655.535156 768.550781 656.046875 C 768.359375 662.699219 765.269531 666.820312 759.28125 668.410156 C 765.558594 652.929688 771.992188 637.472656 778.589844 622.046875 C 780.898438 618.863281 783.726562 618.347656 787.085938 620.5 C 794.699219 636.148438 801.394531 652.117188 807.167969 668.410156 Z M 807.167969 668.410156 "/>
<path style=" stroke:none;fill-rule:evenodd;fill:rgb(36.078431%,36.078431%,36.078431%);fill-opacity:1;" d="M 819.527344 617.410156 C 826.53125 616.917969 833.222656 617.433594 839.609375 618.953125 C 833.429688 618.953125 827.253906 618.953125 821.074219 618.953125 C 820.558594 634.957031 821.074219 650.925781 822.617188 666.863281 C 823.648438 660.453125 824.679688 654.273438 825.707031 648.316406 C 825.707031 655.015625 825.707031 661.710938 825.707031 668.410156 C 823.648438 668.410156 821.585938 668.410156 819.527344 668.410156 C 819.527344 651.410156 819.527344 634.410156 819.527344 617.410156 Z M 819.527344 617.410156 "/>
<path style=" stroke:none;fill-rule:evenodd;fill:rgb(10.196078%,10.196078%,10.196078%);fill-opacity:1;" d="M 839.609375 618.953125 C 842.941406 618.757812 846.03125 619.53125 848.878906 621.273438 C 858.757812 633.53125 856.183594 642.289062 841.15625 647.546875 C 845.714844 654.683594 850.863281 661.378906 856.605469 667.636719 C 854.542969 668.667969 852.484375 668.667969 850.425781 667.636719 C 845.195312 661.890625 840.5625 655.710938 836.519531 649.089844 C 832.953125 648.324219 829.347656 648.066406 825.707031 648.316406 C 824.679688 654.273438 823.648438 660.453125 822.617188 666.863281 C 821.074219 650.925781 820.558594 634.957031 821.074219 618.953125 C 827.253906 618.953125 833.429688 618.953125 839.609375 618.953125 Z M 839.609375 618.953125 "/>
<path style=" stroke:none;fill-rule:evenodd;fill:rgb(10.196078%,10.196078%,10.196078%);fill-opacity:1;" d="M 885.957031 617.410156 C 898.636719 616.277344 907.90625 621.171875 913.761719 632.089844 C 910.34375 637.183594 908.027344 636.410156 906.8125 629.773438 C 899.253906 623.164062 890.757812 621.875 881.320312 625.910156 C 870.640625 635.277344 869.351562 645.839844 877.460938 657.589844 C 889.964844 666.992188 900.523438 665.1875 909.128906 652.183594 C 910.59375 651.433594 912.136719 651.179688 913.761719 651.410156 C 911.925781 660.710938 906.261719 666.121094 896.769531 667.636719 C 872.601562 667.125 863.589844 655.019531 869.734375 631.316406 C 873.546875 624.671875 878.953125 620.035156 885.957031 617.410156 Z M 885.957031 617.410156 "/>
<path style=" stroke:none;fill-rule:evenodd;fill:rgb(4.313725%,4.313725%,4.313725%);fill-opacity:1;" d="M 929.210938 618.953125 C 930.753906 618.953125 932.300781 618.953125 933.84375 618.953125 C 933.84375 626.167969 933.84375 633.378906 933.84375 640.589844 C 943.113281 640.589844 952.382812 640.589844 961.652344 640.589844 C 962.210938 632.984375 963.757812 625.773438 966.285156 618.953125 C 966.800781 634.957031 966.285156 650.925781 964.742188 666.863281 C 963.710938 659.417969 962.679688 652.207031 961.652344 645.226562 C 952.382812 645.226562 943.113281 645.226562 933.84375 645.226562 C 933.84375 652.953125 933.84375 660.683594 933.84375 668.410156 C 932.300781 668.410156 930.753906 668.410156 929.210938 668.410156 C 929.210938 651.921875 929.210938 635.441406 929.210938 618.953125 Z M 929.210938 618.953125 "/>
<path style=" stroke:none;fill-rule:evenodd;fill:rgb(47.058824%,47.058824%,47.058824%);fill-opacity:1;" d="M 967.832031 618.953125 C 967.316406 618.953125 966.800781 618.953125 966.285156 618.953125 C 963.757812 625.773438 962.210938 632.984375 961.652344 640.589844 C 961.652344 640.078125 961.652344 639.558594 961.652344 639.046875 C 961.652344 631.832031 961.652344 624.621094 961.652344 617.410156 C 964.121094 616.996094 966.179688 617.511719 967.832031 618.953125 Z M 967.832031 618.953125 "/>
<path style=" stroke:none;fill-rule:evenodd;fill:rgb(25.098039%,25.098039%,25.098039%);fill-opacity:1;" d="M 966.285156 618.953125 C 966.800781 618.953125 967.316406 618.953125 967.832031 618.953125 C 967.832031 635.441406 967.832031 651.921875 967.832031 668.410156 C 965.773438 668.410156 963.710938 668.410156 961.652344 668.410156 C 961.652344 660.683594 961.652344 652.953125 961.652344 645.226562 C 962.679688 652.207031 963.710938 659.417969 964.742188 666.863281 C 966.285156 650.925781 966.800781 634.957031 966.285156 618.953125 Z M 966.285156 618.953125 "/>
<path style=" stroke:none;fill-rule:evenodd;fill:rgb(4.705882%,4.705882%,4.705882%);fill-opacity:1;" d="M 986.367188 618.953125 C 987.914062 618.953125 989.457031 618.953125 991.003906 618.953125 C 991.003906 635.441406 991.003906 651.921875 991.003906 668.410156 C 989.457031 668.410156 987.914062 668.410156 986.367188 668.410156 C 986.367188 651.921875 986.367188 635.441406 986.367188 618.953125 Z M 986.367188 618.953125 "/>
<path style=" stroke:none;fill-rule:evenodd;fill:rgb(48.235294%,48.235294%,48.235294%);fill-opacity:1;" d="M 1017.265625 618.953125 C 1015.207031 618.953125 1013.144531 618.953125 1011.085938 618.953125 C 1011.085938 634.921875 1011.085938 650.894531 1011.085938 666.863281 C 1011.085938 667.378906 1011.085938 667.894531 1011.085938 668.410156 C 1009.550781 651.6875 1009.035156 634.6875 1009.542969 617.410156 C 1012.5 616.96875 1015.074219 617.484375 1017.265625 618.953125 Z M 1017.265625 618.953125 "/>
<path style=" stroke:none;fill-rule:evenodd;fill:rgb(7.45098%,7.45098%,7.45098%);fill-opacity:1;" d="M 1017.265625 618.953125 C 1023.652344 632.769531 1030.089844 646.679688 1036.574219 660.683594 C 1042.242188 647.289062 1047.902344 633.894531 1053.570312 620.5 C 1056.195312 619.101562 1059.027344 618.585938 1062.066406 618.953125 C 1062.066406 635.441406 1062.066406 651.921875 1062.066406 668.410156 C 1060.519531 668.410156 1058.976562 668.410156 1057.429688 668.410156 C 1057.6875 654.492188 1057.429688 640.582031 1056.660156 626.683594 C 1055.867188 628.269531 1055.09375 629.816406 1054.339844 631.316406 C 1049.441406 644.257812 1043.519531 656.621094 1036.574219 668.410156 C 1034.023438 667.914062 1032.476562 666.367188 1031.941406 663.773438 C 1026.886719 651.949219 1021.996094 640.101562 1017.265625 628.226562 C 1017.171875 627.386719 1016.660156 626.875 1015.71875 626.683594 C 1015.179688 640.652344 1013.632812 654.046875 1011.085938 666.863281 C 1011.085938 650.894531 1011.085938 634.921875 1011.085938 618.953125 C 1013.144531 618.953125 1015.207031 618.953125 1017.265625 618.953125 Z M 1017.265625 618.953125 "/>
<path style=" stroke:none;fill-rule:evenodd;fill:rgb(9.411765%,9.411765%,9.411765%);fill-opacity:1;" d="M 1094.507812 618.953125 C 1097.269531 618.515625 1099.84375 619.027344 1102.230469 620.5 C 1109.378906 636.339844 1116.074219 652.3125 1122.3125 668.410156 C 1120.269531 668.671875 1118.46875 668.15625 1116.90625 666.863281 C 1115.726562 662.695312 1113.921875 658.832031 1111.5 655.273438 C 1102.746094 654.242188 1093.992188 654.242188 1085.238281 655.273438 C 1083.144531 658.980469 1081.339844 662.84375 1079.832031 666.863281 C 1078.003906 668.765625 1076.203125 668.765625 1074.425781 666.863281 C 1081.5625 651.039062 1088.257812 635.070312 1094.507812 618.953125 Z M 1094.507812 618.953125 "/>
<path style=" stroke:none;fill-rule:evenodd;fill:rgb(7.843137%,7.843137%,7.843137%);fill-opacity:1;" d="M 1130.039062 618.953125 C 1142.394531 618.953125 1154.753906 618.953125 1167.113281 618.953125 C 1167.113281 620.5 1167.113281 622.046875 1167.113281 623.589844 C 1161.964844 623.589844 1156.8125 623.589844 1151.664062 623.589844 C 1150.632812 637.769531 1149.605469 652.195312 1148.574219 666.863281 C 1147.546875 652.195312 1146.515625 637.769531 1145.484375 623.589844 C 1140.335938 623.589844 1135.1875 623.589844 1130.039062 623.589844 C 1130.039062 622.046875 1130.039062 620.5 1130.039062 618.953125 Z M 1130.039062 618.953125 "/>
<path style=" stroke:none;fill-rule:evenodd;fill:rgb(8.627451%,8.627451%,8.627451%);fill-opacity:1;" d="M 1187.195312 623.589844 C 1185.679688 628.941406 1185.164062 634.609375 1185.652344 640.589844 C 1193.890625 640.589844 1202.128906 640.589844 1210.367188 640.589844 C 1210.367188 642.136719 1210.367188 643.683594 1210.367188 645.226562 C 1202.644531 645.226562 1194.921875 645.226562 1187.195312 645.226562 C 1185.675781 651.097656 1185.160156 657.277344 1185.652344 663.773438 C 1194.40625 663.773438 1203.160156 663.773438 1211.914062 663.773438 C 1211.914062 665.316406 1211.914062 666.863281 1211.914062 668.410156 C 1201.613281 668.410156 1191.316406 668.410156 1181.015625 668.410156 C 1181.015625 651.921875 1181.015625 635.441406 1181.015625 618.953125 C 1191.316406 618.953125 1201.613281 618.953125 1211.914062 618.953125 C 1211.914062 620.5 1211.914062 622.046875 1211.914062 623.589844 C 1203.675781 623.589844 1195.433594 623.589844 1187.195312 623.589844 Z M 1187.195312 623.589844 "/>
<path style=" stroke:none;fill-rule:evenodd;fill:rgb(94.509804%,94.509804%,94.509804%);fill-opacity:1;" d="M 1108.410156 648.316406 C 1101.714844 650.378906 1095.019531 650.378906 1088.328125 648.316406 C 1090.832031 640.21875 1094.179688 632.488281 1098.367188 625.136719 C 1102.558594 632.488281 1105.90625 640.21875 1108.410156 648.316406 Z M 1108.410156 648.316406 "/>
<path style=" stroke:none;fill-rule:evenodd;fill:rgb(21.960784%,21.960784%,21.960784%);fill-opacity:1;" d="M 1017.265625 628.226562 C 1015.730469 641.339844 1015.21875 654.734375 1015.71875 668.410156 C 1014.175781 668.410156 1012.632812 668.410156 1011.085938 668.410156 C 1011.085938 667.894531 1011.085938 667.378906 1011.085938 666.863281 C 1013.632812 654.046875 1015.179688 640.652344 1015.71875 626.683594 C 1016.660156 626.875 1017.171875 627.386719 1017.265625 628.226562 Z M 1017.265625 628.226562 "/>
<path style=" stroke:none;fill-rule:evenodd;fill:rgb(69.411765%,69.411765%,69.411765%);fill-opacity:1;" d="M 1057.429688 668.410156 C 1056.402344 656.046875 1055.371094 643.683594 1054.339844 631.316406 C 1055.09375 629.816406 1055.867188 628.269531 1056.660156 626.683594 C 1057.429688 640.582031 1057.6875 654.492188 1057.429688 668.410156 Z M 1057.429688 668.410156 "/>
<path style=" stroke:none;fill-rule:evenodd;fill:rgb(96.078431%,96.078431%,96.078431%);fill-opacity:1;" d="M 825.707031 623.589844 C 831.910156 623.335938 838.085938 623.59375 844.246094 624.363281 C 851.070312 631.8125 850.042969 637.992188 841.15625 642.910156 C 836.03125 643.679688 830.882812 643.9375 825.707031 643.683594 C 825.707031 636.984375 825.707031 630.289062 825.707031 623.589844 Z M 825.707031 623.589844 "/>
<path style=" stroke:none;fill-rule:evenodd;fill:rgb(76.078431%,76.078431%,76.078431%);fill-opacity:1;" d="M 929.210938 618.953125 C 930.859375 617.511719 932.917969 616.996094 935.390625 617.410156 C 935.390625 624.621094 935.390625 631.832031 935.390625 639.046875 C 944.144531 639.046875 952.898438 639.046875 961.652344 639.046875 C 961.652344 639.558594 961.652344 640.078125 961.652344 640.589844 C 952.382812 640.589844 943.113281 640.589844 933.84375 640.589844 C 933.84375 633.378906 933.84375 626.167969 933.84375 618.953125 C 932.300781 618.953125 930.753906 618.953125 929.210938 618.953125 Z M 929.210938 618.953125 "/>
<path style=" stroke:none;fill-rule:evenodd;fill:rgb(66.666667%,66.666667%,66.666667%);fill-opacity:1;" d="M 1187.195312 623.589844 C 1187.195312 628.742188 1187.195312 633.894531 1187.195312 639.046875 C 1195.222656 638.550781 1202.945312 639.066406 1210.367188 640.589844 C 1202.128906 640.589844 1193.890625 640.589844 1185.652344 640.589844 C 1185.164062 634.609375 1185.679688 628.941406 1187.195312 623.589844 Z M 1187.195312 623.589844 "/>
<path style=" stroke:none;fill-rule:evenodd;fill:rgb(94.901961%,94.901961%,94.901961%);fill-opacity:1;" d="M 793.265625 648.316406 C 786.574219 650.378906 779.878906 650.378906 773.183594 648.316406 C 775.6875 640.21875 779.035156 632.488281 783.226562 625.136719 C 787.625 632.421875 790.972656 640.148438 793.265625 648.316406 Z M 793.265625 648.316406 "/>
<path style=" stroke:none;fill-rule:evenodd;fill:rgb(30.196078%,30.196078%,30.196078%);fill-opacity:1;" d="M 1145.484375 623.589844 C 1146.515625 637.769531 1147.546875 652.195312 1148.574219 666.863281 C 1149.605469 652.195312 1150.632812 637.769531 1151.664062 623.589844 C 1151.664062 638.53125 1151.664062 653.46875 1151.664062 668.410156 C 1149.605469 668.410156 1147.546875 668.410156 1145.484375 668.410156 C 1145.484375 653.46875 1145.484375 638.53125 1145.484375 623.589844 Z M 1145.484375 623.589844 "/>
<path style=" stroke:none;fill-rule:evenodd;fill:rgb(50.588235%,50.588235%,50.588235%);fill-opacity:1;" d="M 773.183594 648.316406 C 779.878906 650.378906 786.574219 650.378906 793.265625 648.316406 C 794.105469 648.410156 794.621094 648.925781 794.8125 649.863281 C 787.085938 651.921875 779.363281 651.921875 771.640625 649.863281 C 771.832031 648.925781 772.34375 648.410156 773.183594 648.316406 Z M 773.183594 648.316406 "/>
<path style=" stroke:none;fill-rule:evenodd;fill:rgb(50.588235%,50.588235%,50.588235%);fill-opacity:1;" d="M 1088.328125 648.316406 C 1095.019531 650.378906 1101.714844 650.378906 1108.410156 648.316406 C 1109.25 648.410156 1109.761719 648.925781 1109.953125 649.863281 C 1102.230469 651.921875 1094.507812 651.921875 1086.78125 649.863281 C 1086.972656 648.925781 1087.488281 648.410156 1088.328125 648.316406 Z M 1088.328125 648.316406 "/>
<path style=" stroke:none;fill-rule:evenodd;fill:rgb(66.666667%,66.666667%,66.666667%);fill-opacity:1;" d="M 1187.195312 645.226562 C 1187.195312 650.894531 1187.195312 656.558594 1187.195312 662.226562 C 1195.734375 661.730469 1203.972656 662.246094 1211.914062 663.773438 C 1203.160156 663.773438 1194.40625 663.773438 1185.652344 663.773438 C 1185.160156 657.277344 1185.675781 651.097656 1187.195312 645.226562 Z M 1187.195312 645.226562 "/>
</g>
</svg>
